<svg xmlns="http://www.w3.org/2000/svg" xmlns:xlink="http://www.w3.org/1999/xlink" version="1.1" width="932.15957" height="608.15957" viewBox="0 0 932.15957 608.15957">
<defs>
<clipPath id="clip_0">
<path transform="matrix(1,0,0,-1,0,608.15957)" d="M63.45878 49.42358H931.0795V607.0795H63.45878Z"/>
</clipPath>
<clipPath id="clip_1">
<path transform="matrix(1,0,0,-1,0,608.15957)" d="M63.45878 49.42358H931.0795V607.0795H63.45878Z"/>
</clipPath>
<clipPath id="clip_2">
<path transform="matrix(1,0,0,-1,0,608.15957)" d="M63.45878 49.42358H931.0795V607.0795H63.45878Z"/>
</clipPath>
<clipPath id="clip_3">
<path transform="matrix(1,0,0,-1,0,608.15957)" d="M63.45878 49.42358H931.0795V607.0795H63.45878Z"/>
</clipPath>
<clipPath id="clip_4">
<path transform="matrix(1,0,0,-1,0,608.15957)" d="M63.45878 49.42358H931.0795V607.0795H63.45878Z"/>
</clipPath>
<clipPath id="clip_5">
<path transform="matrix(1,0,0,-1,0,608.15957)" d="M63.45878 49.42358H931.0795V607.0795H63.45878Z"/>
</clipPath>
<clipPath id="clip_6">
<path transform="matrix(1,0,0,-1,0,608.15957)" d="M63.45878 49.42358H931.0795V607.0795H63.45878Z"/>
</clipPath>
<clipPath id="clip_7">
<path transform="matrix(1,0,0,-1,0,608.15957)" d="M63.45878 49.42358H931.0795V607.0795H63.45878Z"/>
</clipPath>
<clipPath id="clip_8">
<path transform="matrix(1,0,0,-1,0,608.15957)" d="M63.45878 49.42358H931.0795V607.0795H63.45878Z"/>
</clipPath>
<clipPath id="clip_9">
<path transform="matrix(1,0,0,-1,0,608.15957)" d="M63.45878 49.42358H931.0795V607.0795H63.45878Z"/>
</clipPath>
<clipPath id="clip_10">
<path transform="matrix(1,0,0,-1,0,608.15957)" d="M63.45878 49.42358H931.0795V607.0795H63.45878Z"/>
</clipPath>
<clipPath id="clip_11">
<path transform="matrix(1,0,0,-1,0,608.15957)" d="M63.45878 49.42358H931.0795V607.0795H63.45878Z"/>
</clipPath>
<clipPath id="clip_12">
<path transform="matrix(1,0,0,-1,0,608.15957)" d="M63.45878 49.42358H931.0795V607.0795H63.45878Z"/>
</clipPath>
<clipPath id="clip_13">
<path transform="matrix(1,0,0,-1,0,608.15957)" d="M63.45878 49.42358H931.0795V607.0795H63.45878Z"/>
</clipPath>
<clipPath id="clip_14">
<path transform="matrix(1,0,0,-1,0,608.15957)" d="M63.45878 49.42358H931.0795V607.0795H63.45878Z"/>
</clipPath>
<clipPath id="clip_15">
<path transform="matrix(1,0,0,-1,0,608.15957)" d="M63.45878 49.42358H931.0795V607.0795H63.45878Z"/>
</clipPath>
<clipPath id="clip_16">
<path transform="matrix(1,0,0,-1,0,608.15957)" d="M63.45878 49.42358H931.0795V607.0795H63.45878Z"/>
</clipPath>
<clipPath id="clip_17">
<path transform="matrix(1,0,0,-1,0,608.15957)" d="M63.45878 49.42358H931.0795V607.0795H63.45878Z"/>
</clipPath>
<clipPath id="clip_18">
<path transform="matrix(1,0,0,-1,0,608.15957)" d="M63.45878 49.42358H931.0795V607.0795H63.45878Z"/>
</clipPath>
<clipPath id="clip_19">
<path transform="matrix(1,0,0,-1,0,608.15957)" d="M63.45878 49.42358H931.0795V607.0795H63.45878Z"/>
</clipPath>
<clipPath id="clip_20">
<path transform="matrix(1,0,0,-1,0,608.15957)" d="M63.45878 49.42358H931.0795V607.0795H63.45878Z"/>
</clipPath>
<clipPath id="clip_21">
<path transform="matrix(1,0,0,-1,0,608.15957)" d="M63.45878 49.42358H931.0795V607.0795H63.45878Z"/>
</clipPath>
<clipPath id="clip_22">
<path transform="matrix(1,0,0,-1,0,608.15957)" d="M63.45878 49.42358H931.0795V607.0795H63.45878Z"/>
</clipPath>
<clipPath id="clip_23">
<path transform="matrix(1,0,0,-1,0,608.15957)" d="M63.45878 49.42358H931.0795V607.0795H63.45878Z"/>
</clipPath>
<clipPath id="clip_24">
<path transform="matrix(1,0,0,-1,0,608.15957)" d="M63.45878 49.42358H931.0795V607.0795H63.45878Z"/>
</clipPath>
<clipPath id="clip_25">
<path transform="matrix(1,0,0,-1,0,608.15957)" d="M63.45878 49.42358H931.0795V607.0795H63.45878Z"/>
</clipPath>
<clipPath id="clip_26">
<path transform="matrix(1,0,0,-1,0,608.15957)" d="M63.45878 49.42358H931.0795V607.0795H63.45878Z"/>
</clipPath>
<clipPath id="clip_27">
<path transform="matrix(1,0,0,-1,0,608.15957)" d="M63.45878 49.42358H931.0795V607.0795H63.45878Z"/>
</clipPath>
<clipPath id="clip_28">
<path transform="matrix(1,0,0,-1,0,608.15957)" d="M63.45878 49.42358H931.0795V607.0795H63.45878Z"/>
</clipPath>
</defs>
<path transform="matrix(1,0,0,-1,0,608.15957)" d="M0 0H932.15957V608.15957H0Z" fill="#ffffff"/>
<path transform="matrix(1,0,0,-1,0,608.15957)" d="M63.45878 49.42358H931.0795V607.0795H63.45878Z" fill="#ffffff"/>
<g clip-path="url(#clip_0)">
<path transform="matrix(1,0,0,-1,0,608.15957)" stroke-width="1" stroke-linecap="round" stroke-linejoin="round" fill="none" stroke="#d5d6d5" d="M81.53386 49.42358V607.0795"/>
</g>
<g clip-path="url(#clip_1)">
<path transform="matrix(1,0,0,-1,0,608.15957)" stroke-width="1" stroke-linecap="round" stroke-linejoin="round" fill="none" stroke="#d5d6d5" d="M134.60445 49.42358V607.0795"/>
</g>
<g clip-path="url(#clip_2)">
<path transform="matrix(1,0,0,-1,0,608.15957)" stroke-width="1" stroke-linecap="round" stroke-linejoin="round" fill="none" stroke="#d5d6d5" d="M175.76918 49.42358V607.0795"/>
<path transform="matrix(1,0,0,-1,0,608.15957)" stroke-width="1" stroke-linecap="round" stroke-linejoin="round" fill="none" stroke="#d5d6d5" d="M209.40323 49.42358V607.0795"/>
<path transform="matrix(1,0,0,-1,0,608.15957)" stroke-width="1" stroke-linecap="round" stroke-linejoin="round" fill="none" stroke="#d5d6d5" d="M237.8404 49.42358V607.0795"/>
<path transform="matrix(1,0,0,-1,0,608.15957)" stroke-width="1" stroke-linecap="round" stroke-linejoin="round" fill="none" stroke="#d5d6d5" d="M262.47383 49.42358V607.0795"/>
<path transform="matrix(1,0,0,-1,0,608.15957)" stroke-width="1" stroke-linecap="round" stroke-linejoin="round" fill="none" stroke="#d5d6d5" d="M284.202 49.42358V607.0795"/>
<path transform="matrix(1,0,0,-1,0,608.15957)" stroke-width="1" stroke-linecap="round" stroke-linejoin="round" fill="none" stroke="#d5d6d5" d="M303.63856 49.42358V607.0795"/>
</g>
<text fill="#333333" xml:space="preserve" transform="matrix(1 0 -0 1 0 608.15957)" font-size="18.630135" font-family="CMR17"><tspan y="-27.292525" x="291.90214 300.43473">10</tspan></text>
<text fill="#333333" xml:space="preserve" transform="matrix(1 0 -0 1 0 608.15957)" font-size="13.041032" font-family="CMR12"><tspan y="-34.053247" x="308.99037">6</tspan></text>
<g clip-path="url(#clip_3)">
<path transform="matrix(1,0,0,-1,0,608.15957)" stroke-width="1" stroke-linecap="round" stroke-linejoin="round" fill="none" stroke="#d5d6d5" d="M431.5079 49.42358V607.0795"/>
<path transform="matrix(1,0,0,-1,0,608.15957)" stroke-width="1" stroke-linecap="round" stroke-linejoin="round" fill="none" stroke="#d5d6d5" d="M506.3067 49.42358V607.0795"/>
<path transform="matrix(1,0,0,-1,0,608.15957)" stroke-width="1" stroke-linecap="round" stroke-linejoin="round" fill="none" stroke="#d5d6d5" d="M559.37728 49.42358V607.0795"/>
<path transform="matrix(1,0,0,-1,0,608.15957)" stroke-width="1" stroke-linecap="round" stroke-linejoin="round" fill="none" stroke="#d5d6d5" d="M600.542 49.42358V607.0795"/>
<path transform="matrix(1,0,0,-1,0,608.15957)" stroke-width="1" stroke-linecap="round" stroke-linejoin="round" fill="none" stroke="#d5d6d5" d="M634.176 49.42358V607.0795"/>
<path transform="matrix(1,0,0,-1,0,608.15957)" stroke-width="1" stroke-linecap="round" stroke-linejoin="round" fill="none" stroke="#d5d6d5" d="M662.6132 49.42358V607.0795"/>
</g>
<text fill="#333333" xml:space="preserve" transform="matrix(1 0 -0 1 0 608.15957)" font-size="20.32378" font-family="NimbusRomNo9L"><tspan y="-5.479928" x="462.2619 475.79756 485.95945 496.12135 501.75105 507.38075 523.1723">Runtime</tspan></text>
<g clip-path="url(#clip_4)">
<path transform="matrix(1,0,0,-1,0,608.15957)" stroke-width="1" stroke-linecap="round" stroke-linejoin="round" fill="none" stroke="#d5d6d5" d="M63.45878 96.28542H931.0795"/>
</g>
<text fill="#333333" xml:space="preserve" transform="matrix(1 0 -0 1 0 608.15957)" font-size="18.630135" font-family="CMR17"><tspan y="-89.969898" x="23.259264 31.791867">53</tspan></text>
<text fill="#333333" xml:space="preserve" transform="matrix(1 0 -0 1 0 608.15957)" font-size="18.630135" font-family="CMMI12" font-style="italic"><tspan y="-89.969898" x="40.347497">.</tspan></text>
<text fill="#333333" xml:space="preserve" transform="matrix(1 0 -0 1 0 608.15957)" font-size="18.630135" font-family="CMR17"><tspan y="-89.969898" x="45.41466">0</tspan></text>
<g clip-path="url(#clip_5)">
<path transform="matrix(1,0,0,-1,0,608.15957)" stroke-width="1" stroke-linecap="round" stroke-linejoin="round" fill="none" stroke="#d5d6d5" d="M63.45878 213.44004H931.0795"/>
</g>
<text fill="#333333" xml:space="preserve" transform="matrix(1 0 -0 1 0 608.15957)" font-size="18.630135" font-family="CMR17"><tspan y="-207.12451" x="23.259264 31.791867">53</tspan></text>
<text fill="#333333" xml:space="preserve" transform="matrix(1 0 -0 1 0 608.15957)" font-size="18.630135" font-family="CMMI12" font-style="italic"><tspan y="-207.12451" x="40.347497">.</tspan></text>
<text fill="#333333" xml:space="preserve" transform="matrix(1 0 -0 1 0 608.15957)" font-size="18.630135" font-family="CMR17"><tspan y="-207.12451" x="45.41466">5</tspan></text>
<g clip-path="url(#clip_6)">
<path transform="matrix(1,0,0,-1,0,608.15957)" stroke-width="1" stroke-linecap="round" stroke-linejoin="round" fill="none" stroke="#d5d6d5" d="M63.45878 330.59465H931.0795"/>
</g>
<text fill="#333333" xml:space="preserve" transform="matrix(1 0 -0 1 0 608.15957)" font-size="18.630135" font-family="CMR17"><tspan y="-324.2791" x="23.259264 31.791867">54</tspan></text>
<text fill="#333333" xml:space="preserve" transform="matrix(1 0 -0 1 0 608.15957)" font-size="18.630135" font-family="CMMI12" font-style="italic"><tspan y="-324.2791" x="40.347497">.</tspan></text>
<text fill="#333333" xml:space="preserve" transform="matrix(1 0 -0 1 0 608.15957)" font-size="18.630135" font-family="CMR17"><tspan y="-324.2791" x="45.41466">0</tspan></text>
<g clip-path="url(#clip_7)">
<path transform="matrix(1,0,0,-1,0,608.15957)" stroke-width="1" stroke-linecap="round" stroke-linejoin="round" fill="none" stroke="#d5d6d5" d="M63.45878 447.74925H931.0795"/>
</g>
<text fill="#333333" xml:space="preserve" transform="matrix(1 0 -0 1 0 608.15957)" font-size="18.630135" font-family="CMR17"><tspan y="-441.43373" x="23.259264 31.791867">54</tspan></text>
<text fill="#333333" xml:space="preserve" transform="matrix(1 0 -0 1 0 608.15957)" font-size="18.630135" font-family="CMMI12" font-style="italic"><tspan y="-441.43373" x="40.347497">.</tspan></text>
<text fill="#333333" xml:space="preserve" transform="matrix(1 0 -0 1 0 608.15957)" font-size="18.630135" font-family="CMR17"><tspan y="-441.43373" x="45.41466">5</tspan></text>
<g clip-path="url(#clip_8)">
<path transform="matrix(1,0,0,-1,0,608.15957)" stroke-width="1" stroke-linecap="round" stroke-linejoin="round" fill="none" stroke="#d5d6d5" d="M63.45878 564.9039H931.0795"/>
</g>
<text fill="#333333" xml:space="preserve" transform="matrix(1 0 -0 1 0 608.15957)" font-size="18.630135" font-family="CMR17"><tspan y="-558.5883" x="23.259264 31.791867">55</tspan></text>
<text fill="#333333" xml:space="preserve" transform="matrix(1 0 -0 1 0 608.15957)" font-size="18.630135" font-family="CMMI12" font-style="italic"><tspan y="-558.5883" x="40.347497">.</tspan></text>
<text fill="#333333" xml:space="preserve" transform="matrix(1 0 -0 1 0 608.15957)" font-size="18.630135" font-family="CMR17"><tspan y="-558.5883" x="45.41466">0</tspan></text>
<text fill="#333333" xml:space="preserve" transform="matrix(0 -1 1 0 0 608.15957)" font-size="20.32378" font-family="NimbusRomNo9L"><tspan y="14.859336" x="264.19175 276.58927 285.5927 291.2224 296.8521 307.014 316.01747 321.64717 327.27687 337.43876 352.68159 361.68504 368.43254 375.18003 385.34193">Validationerror</tspan></text>
<g clip-path="url(#clip_9)">
<path transform="matrix(1,0,0,-1,0,608.15957)" stroke-width="2" stroke-linecap="butt" stroke-dasharray="7.4,3.2" stroke-linejoin="round" fill="none" stroke="#64b5cd" d="M62.32737 609.15957 76.969379 587.86618 86.303859 571.3083 95.29804 538.505 112.10034 512.1062 119.98595 509.2945 127.58107 506.17036H134.87583L141.95052 484.1453 148.76685 468.5247 155.38666 452.43547 161.81491 441.34483 168.01848 440.8762 174.02666 439.0017 179.84984 431.66004 185.49034 424.78697 190.98761 416.35185 196.32343 413.3839H201.50923L206.56218 412.4467 211.5317 406.19844 216.33864 403.0743 220.99964 396.82606 225.55805 393.54573 234.4301 380.89305 238.69844 376.05064 242.85257 372.4579 246.92072 362.6169 250.90892 355.58766 254.82556 348.24595H258.6608L262.4469 347.7773H266.1569L269.80015 344.80943 273.36848 342.1539 276.8753 341.8415H280.3167L283.69459 341.21669 287.02278 336.37428 290.30265 317.94197 293.52696 314.81785 296.72407 305.44548 299.8558 291.0745 302.94523 290.13728H305.98377L308.97386 284.35765 311.90815 282.32698H317.64039L320.42683 275.14149H323.17179L325.87107 274.82908H328.53138L331.14823 269.98667 333.72608 264.83189 336.2617 264.20704 338.74345 249.83608 341.1804 243.58783H343.58555L345.9719 239.99509 348.3222 238.27683 350.64927 235.77753 352.948 234.84029 355.224 234.21546 357.4725 230.93514 361.85453 227.18619 364.0044 225.1555 366.1264 224.8431 368.23945 223.74965H374.43705L376.43159 221.71897H386.093L387.969 220.62554 389.81639 214.37728 391.65214 211.87798 393.46458 211.40937H395.2594L397.03627 210.94075H398.79618L400.53636 208.59766 402.2554 205.94216 403.9686 201.88079H405.66603L407.34605 201.56838H413.91719L415.51826 198.91287H418.67927L420.2453 194.85152 421.79689 187.82224 423.3316 185.94777H426.36329L427.87004 182.04262 429.3545 180.63675 430.8181 177.51264H433.711L435.1404 176.26299H442.12593L443.49607 175.32575H447.5465L448.87547 165.79717 450.19953 165.48476 451.50523 162.36064 452.80113 162.04822 454.09449 157.51825 455.37785 155.64377H461.66334L462.89179 154.23792H464.1121L466.51924 152.05103H473.54966L474.70027 151.58242 475.84428 148.14588 476.9803 147.98967 478.10609 147.05243 479.22203 146.42761 480.3258 145.64658 481.4232 140.02317H491.0164L492.0539 136.27422H496.15113L497.16038 135.18077 498.1621 132.99388H501.13514L502.11729 129.86975H508.8497L509.78593 128.4639H514.397L515.31307 128.15149H516.2199L517.1235 127.058048H518.02267L518.9215 126.745639H523.3515L524.2212 125.65219H531.8618L532.6966 125.49599H534.3464L535.16976 124.40254 535.99508 123.77772 536.8152 118.77912 537.6365 116.74844 538.4567 116.27982H544.0987L544.89028 115.8112H546.46328L547.2441 114.87397H548.0216L548.8033 113.780529 549.57907 111.90605 550.352 107.376079H551.12179L551.886 107.06366H554.9115L555.6653 106.438838H565.19839L565.9109 106.28263H566.62069L567.33236 104.56436 568.04086 104.09574H570.15029L570.84878 102.53368H578.3668L579.036 100.034389H580.36709L581.0264 98.78474H598.5964L599.1957 98.62853H600.982L601.5742 96.75406H609.109L609.6752 95.50441H612.4804L613.5877 95.192H614.6918L615.2424 94.56717H625.4071L625.9294 93.62994H626.45028L626.97109 91.59926H642.43026L642.9082 90.50581H647.62466L648.0918 90.34961H652.24368L652.6975 89.09996H655.40097L655.84878 88.63134H662.4556L662.8914 87.22549 663.3219 87.069278H664.17996L664.60916 84.88239H670.93057L671.34878 83.632747H673.8185L674.22689 83.32033H679.4584L679.85598 80.97724 680.25216 80.82103H686.85946"/>
</g>
<g clip-path="url(#clip_10)">
<path transform="matrix(1,0,0,-1,0,608.15957)" stroke-width="2" stroke-linecap="butt" stroke-dasharray="7.4,3.2" stroke-linejoin="round" fill="none" stroke="#ccb974" d="M62.327718 609.15957 67.177249 602.08096 77.02124 560.06149 86.355808 541.3167 95.46181 513.6683 104.11393 483.67668 112.36821 483.05186 120.30659 478.36567 127.88624 468.9933 135.15493 449.15513 142.1796 447.59306 148.99707 440.25138 161.96895 433.22209 168.13909 425.8804 174.12058 424.78697 179.94472 421.038 185.5979 416.82044 191.05345 406.19844 196.32317 396.20124H201.44654L206.41699 390.734 211.40778 375.4258 216.21923 362.4607 220.91886 351.37007 225.52101 349.9642 230.0063 347.1525 234.37636 338.56117 238.65212 338.40498H246.91735L250.91707 330.12605 254.86351 319.66023 258.72895 312.78715H266.225L269.8536 308.882 273.40846 305.9141H276.89607L280.30006 302.63377H286.9252L290.20326 278.2656 293.45338 272.48597 296.6707 255.30329 299.8087 247.9616 302.87867 246.55574H305.8984L308.8675 242.8068 311.78593 238.74544 314.65269 238.58924H320.25596L323.00315 236.40235 325.69844 235.3089 328.33259 234.52788 330.9157 233.59064H333.4632L335.9738 230.62271H343.30683L345.70558 224.68689 348.06855 223.59345 350.39726 221.56276 352.6962 218.12622 354.9528 216.72037 357.1876 216.09555H359.3957L361.56254 209.8473H363.70423L365.8106 206.72318 367.89479 204.06768 369.95689 202.81803 371.9925 201.88079 374.00456 200.47493H377.96397L379.91819 200.31873H385.6596L387.5494 197.35082H389.4156L391.26585 195.78874H394.91157L396.7028 191.57118H398.4768L400.22969 187.82224H401.9661L403.6894 183.76088 405.39253 181.7302H407.08006L410.3988 177.51264H416.85377L418.43089 173.76369H419.9946L421.57164 160.32996 424.68156 156.4248 426.21095 155.33136H430.7118L432.18583 154.08171H437.96693L439.3864 153.9255H447.6812L449.02503 153.30068 450.3733 147.20864 451.70603 144.24073H453.02919L454.33824 142.99108 455.63487 142.05384 456.9222 136.89904H458.20066L459.4744 133.93112H461.9958L463.2432 133.77492H475.2918L476.4574 131.74423 477.6145 127.37046 478.76139 125.33978H482.1599L483.28288 117.21706H488.7974L489.8712 116.90465 490.93846 115.498798H496.1841L497.2176 110.18778H509.1601L510.1206 110.03158H516.7101L517.63638 109.71916 518.5576 107.376079H519.4743L520.3838 106.28263H533.5136L534.3602 104.56436H535.201L536.0364 102.37748H537.69589L538.5251 102.06506H542.616L543.4227 101.12783H549.7527L550.53317 97.53509 551.3125 96.91026H555.9207L556.67587 95.97302H564.7846L565.50729 95.81682H567.653L568.3593 95.03579H578.64248L579.3101 92.8489H591.5302L592.15377 90.97443H594.62088L595.2321 90.81822H603.58358L604.74948 87.537899 605.32498 86.91307H615.3894L615.9299 86.75687H625.9106L626.4225 85.50722H628.96096L629.46719 84.56998H636.8995L637.38436 84.101367H654.04397L654.48837 83.47654H655.37167L655.81106 83.32033H662.7024L663.1288 80.50862H671.0281L671.4366 79.25897H679.0142L679.4065 77.228298 679.7963 77.07208H686.67599"/>
</g>
<g clip-path="url(#clip_11)">
<path transform="matrix(1,0,0,-1,0,608.15957)" stroke-width="2" stroke-linecap="butt" stroke-dasharray="7.4,3.2" stroke-linejoin="round" fill="none" stroke="#9d9e9d" d="M62.327726 609.15957 67.17725 602.08096 77.18325 537.0992 86.88028 488.51908 96.15527 467.1188 105.044528 452.59165 113.48893 440.09516 121.602329 430.879 129.35942 418.85115 136.88382 405.5736 144.10407 382.2989 151.07993 372.4579 157.8374 370.89585 164.34804 358.24314 170.64438 353.08836 176.73085 350.58906H182.62291L188.38425 344.3408 193.96973 341.8415H199.39105L204.67319 339.0298 209.77587 332.31294 214.75678 319.81645 219.59548 316.8485 224.33045 308.56959 228.96564 305.9141 233.4908 304.66444 237.91417 304.35203 242.22855 299.82206H246.44432L254.5883 291.2307H258.53327L262.39158 287.79417 266.17225 287.32557 269.87763 285.29487 273.50593 281.23353H283.98136L287.35569 281.0773 290.667 279.51527 293.93617 264.51948 297.16957 260.4581 300.3226 253.89743 303.3513 244.36887H306.33103L309.25529 243.43163 312.1266 236.24614 314.97157 231.09134 317.77284 229.21686 320.53993 229.06066H323.26615L325.94383 224.53069H331.1853L333.763 223.59345 336.3005 222.5H346.1152L348.4988 216.87657 350.85008 215.93935 353.16896 213.12763 359.91117 208.59766 364.264 207.97283 366.38575 205.00492H370.55738L372.60997 199.69391H376.64787L378.64485 199.22528H386.41203L388.29304 198.44426 390.1679 195.94496 392.00764 190.47774H393.8292L395.63389 189.6967 397.4238 187.66603H399.19654L400.95527 186.885 402.6932 184.22949 404.41386 184.07329H414.41358L416.0319 182.66744 417.63584 181.10538H422.3657L423.90943 172.82645 425.43498 169.38991 426.95695 166.5782 428.4765 164.2351 429.9841 159.39272 431.47499 153.9255H435.87666L437.32255 153.30068 438.7568 151.89482H441.59236L442.99058 149.86414H447.12278L448.47676 149.23932H451.15528L452.49186 142.67867H455.1296L456.4312 141.2728H457.7237L459.00227 138.30489H460.272L461.5285 137.05524H468.89494L470.0949 136.2742H471.28715L472.47117 135.96179H475.97834L477.13594 135.18076 478.28056 132.21285 479.42765 125.339778H480.56767L481.7022 123.3091H482.82984L483.9497 123.15289H490.49504L491.564 119.403949H492.6268L493.67408 119.09153H497.80476L498.82789 117.37327 499.8408 115.18638 500.84748 115.030178H501.8487L502.83634 112.84329H506.73487L507.6981 112.68708H517.9765L518.8871 112.37467H522.4849L523.37319 110.03158H527.7514L529.4767 107.844699H534.5666L535.4049 103.002307 536.2363 100.815418H537.06399L538.7081 100.1906 539.5319 97.06647H541.9814L542.7918 96.91026H547.581L548.3666 95.97303H550.7034L551.4801 92.38029 552.2498 91.44305 553.02316 88.318927H567.1337L567.84939 88.16272H579.6087L580.27999 85.97584H583.59146L584.2469 85.351009H585.55087L586.19888 84.41377H593.1821L593.8046 82.5393H596.27377L596.88778 82.383098H604.6895L605.8628 82.07068 606.44479 80.196208H607.02499L607.59939 79.57138H616.0079L616.55929 78.946559H621.9711L622.501 78.79035H629.7648L630.27407 77.5407 630.7846 76.60346H638.76828L639.2558 76.13485H640.71096L641.1919 75.041408H656.8424L657.28097 74.8852H657.7184L658.1541 74.729H664.14889L664.57199 72.69831 664.9948 71.91728H672.44467L672.8519 70.66763H680.405L680.7961 68.636959 681.1847 68.48075H688.04299"/>
</g>
<g clip-path="url(#clip_12)">
<path transform="matrix(1,0,0,-1,0,608.15957)" stroke-width="2" stroke-linecap="butt" stroke-dasharray="7.4,3.2" stroke-linejoin="round" fill="none" stroke="#da8bc3" d="M62.32856 609.15957 67.17808 602.08096 77.08544 545.3781 86.65985 498.51628 96.02058 451.1858 104.966197 432.44108 113.59546 402.13706 121.909069 392.6085 129.90048 381.04924 137.55699 375.58204 144.91933 371.20826 151.99005 357.4621 158.78633 346.6839 165.35643 340.74806 171.72624 333.87498 177.89438 333.25016 183.85793 332.78153 189.6077 325.59605 195.15665 321.5347 200.54396 320.75367 205.78545 320.59745H210.88213L215.83335 319.97264 220.64131 313.7244 225.32105 309.66304 229.94661 302.47755 234.45526 297.94758 238.85214 297.0103H243.14667L247.33162 293.26139 251.40254 292.79277H255.38558L259.26927 291.6993 263.07466 290.13728 266.81123 289.35624 270.4603 278.2656H280.99348L284.36259 277.17216 287.65568 272.17356 290.8972 267.79978 294.1036 262.9574 297.25468 252.17917H300.35285L303.40177 244.68128 306.41957 241.08853H309.38877L312.31098 238.90164 315.18098 237.18338 317.97837 232.18479H323.44905L326.1145 230.93514H331.3326L333.88185 229.52928 338.85823 225.3117 341.2772 223.59345H343.66487L346.017 222.5H350.63957L352.89884 221.56276 355.1288 219.21967H357.33219L359.51466 218.59485 361.66996 218.43865 363.80583 216.72037 365.91746 213.44005H374.13029L376.1155 211.40937 378.08235 210.31592H385.74635L387.62205 209.22248H394.95454L396.7443 208.59766H398.51689L400.27626 200.16252 402.01783 200.00632 403.74159 199.69391 405.44416 198.13184H407.13117L408.80885 195.78874H413.74644L415.35615 193.28945 416.95549 192.50843 418.54005 192.35222 420.10877 190.00913H421.66426L423.21409 188.29085H426.26667L427.77897 183.91709H429.27897L430.7639 179.5433H433.69837L435.146 174.85712H436.58238L438.0001 169.85852 439.4064 166.89061H442.1873L443.56324 166.10958H446.2847L447.63545 165.48476 448.96708 165.32855H450.28916L451.60249 164.2351 452.90153 163.45407H454.19154L455.47065 161.4234 456.74473 160.79857H458.01008L459.26609 157.98686 460.52165 156.89342 461.76795 156.58101H469.07395L470.26319 156.4248H472.61894L473.78739 155.95618H474.9485L476.10575 155.17516H477.25254L478.39149 154.55033H479.52345L480.64613 150.80138H481.76197L482.86766 149.86414H487.22526L488.3012 147.36484H489.37098L490.43168 146.74002 491.48194 141.42902H498.6739L499.67637 139.24213H501.66865L502.65705 138.6173H504.6181L505.59294 136.89904H512.2761L513.2089 135.80559 514.1387 132.68148H515.0637L515.98049 130.9632H519.6054L520.5032 129.86975H525.79989L526.6657 126.745639H531.7771L532.61508 124.40254H533.4492L535.1228 123.15289H535.9539L536.7854 119.87257H537.6132L538.4377 118.3105H540.0757L540.89138 117.06085H553.4769L554.23678 115.96741H554.9935L555.7511 115.34258H556.5057L557.2554 114.71776 558.0053 113.93673H561.71L562.44357 112.21846H566.78659L567.4968 111.43743 568.2022 109.87537H573.06607L573.75228 109.25054H579.15408L579.818 108.78193H585.6911L586.33389 107.84469H586.97439L587.61318 107.53228H589.5163L590.1473 105.03298H596.34298L596.95297 104.87677H599.3728L599.9737 104.720569H605.87869L606.4581 103.47092H607.03579L608.1836 101.90886H611.5732L612.1312 101.284038H617.6223L618.1652 100.65921H620.321L620.8533 98.78474H625.5763L626.0965 96.75405H629.68679L630.1927 95.3482 630.69888 95.19199H637.6442L638.1303 94.72337H643.3948L643.86599 94.25476H645.27249L645.741 94.09855H654.4L654.84768 93.62994H657.5028L657.941 93.473728 658.3783 91.91167H666.08059L666.49838 90.81822H668.9854L669.3983 88.63134H670.63168L671.04269 87.8503H675.1047L675.50588 87.537899H676.30557L676.7051 86.288249H678.29476L678.69039 85.35101H681.8265L682.21499 83.16412H684.5287L684.91098 83.00792H687.1878"/>
</g>
<g clip-path="url(#clip_13)">
<path transform="matrix(1,0,0,-1,0,608.15957)" stroke-width="2" stroke-linecap="butt" stroke-dasharray="7.4,3.2" stroke-linejoin="round" fill="none" stroke="#937860" d="M62.327917 609.15957 67.177448 602.08096 77.06674 537.41159 86.517 504.7645 95.54457 490.08113 104.23007 480.24015 112.618778 458.05888 120.67553 449.15513 128.37268 436.5024 135.74076 434.62794 142.95015 425.09938 149.9162 420.41319 156.61513 420.10078 163.05658 408.2291 169.33313 396.045 175.39493 395.7326 181.27931 382.6113 186.97533 367.7717 192.52228 356.6811 197.92911 356.52488H203.18196L208.27295 348.24595 213.2729 345.90287 218.11074 336.06187 222.82587 335.12464 227.40573 332.00053 231.86623 320.28504 236.2443 314.50544 240.52507 309.35063 244.73276 299.82206 248.90454 286.7007H252.98407L256.98579 278.4218 260.90827 278.10939H264.7491L268.49848 274.98527H272.17314L275.76005 269.67427 279.27973 266.55015 282.70838 261.39533H289.38023L292.6545 254.20984 295.85136 250.46089 299.00984 247.02437 302.12333 242.33818 305.1786 239.52648H308.17555L311.11097 225.93654 313.99748 221.40656 316.82737 220.31311 319.62495 209.37868H325.09593L327.73088 204.38008H330.3287L332.89476 204.06768 335.43458 197.50702H337.93989L340.39378 195.78874H342.81544L345.20048 195.63254H347.57295L349.8983 195.32013 352.1857 193.44565 354.4453 190.16533 356.6813 187.3536 358.8776 185.47914 361.04899 184.3857 365.28517 181.10536 367.36177 178.60607 369.4206 176.5754 371.45509 174.85712 373.47444 172.98265H388.89469L390.7335 167.98406H397.91078L399.6549 167.67165H401.3827L403.0973 166.89061 404.79435 165.01615 406.4755 162.98546H408.14146L409.78807 161.4234H413.03788L414.6405 161.2672H417.80458L420.93476 156.4248 422.49964 154.70653H427.07435L428.587 148.30208H431.5672L433.04109 146.42761H434.5033L435.95124 145.95899 437.38609 144.08452H438.80986L440.217 142.99108 441.61283 140.49178H442.99815L444.3706 139.24213H445.73295L447.08329 137.36765H448.4238L449.75157 136.74283H451.0826L452.38594 132.68148H453.6801L454.97303 129.40114H457.53199L458.79615 128.4639 460.05113 128.15149H463.76557L464.9812 126.12081H473.2735L474.43028 125.33978 475.5932 120.966H479.00407L480.13456 117.99809 481.25425 117.217067H484.57313L485.65525 116.43603H486.73109L487.80104 111.59364H495.1217L496.14674 109.56296H498.19059L499.1991 106.59504H504.16053L505.13633 106.438838 506.10557 105.81401H509.93235L510.87876 104.09575H520.09506L520.9949 103.78333H524.5511L525.4327 102.68989H533.1828L534.0377 100.3468H535.7171L536.5522 100.19059H538.2112L539.03457 99.72198 539.85488 99.40956H543.10006L543.9049 98.78474H545.5042L546.298 97.8475H550.22567L550.9993 97.69129H552.53707L553.30288 95.348209 554.0707 94.72338 554.8362 92.84891 555.5981 90.1934H565.23599L565.9573 90.03719H566.6757L567.39608 88.318927 568.1142 87.6941H579.9213L580.5924 84.56998H591.64236L592.28079 82.6955H598.47006L599.0773 82.5393H603.86477L604.46218 80.82103H605.6359L606.22 80.04H606.8021L607.3822 79.8838H607.96047L608.53298 79.25897H616.9218L617.4701 78.63415 618.014 78.47794H627.0299L627.5477 77.228298H629.0924L629.606 77.07208H636.15597L636.6587 76.13485H637.6464L638.1368 75.041408H656.32156L656.764 74.8852H663.70309L664.13577 72.85452H665.4087L665.8329 72.07349H672.4968L672.90609 70.82384H680.1216L680.5212 68.79316H684.02658L684.4113 68.636959H687.8389"/>
</g>
<g clip-path="url(#clip_14)">
<path transform="matrix(1,0,0,-1,0,608.15957)" stroke-width="2" stroke-linecap="butt" stroke-dasharray="7.4,3.2" stroke-linejoin="round" fill="none" stroke="#8172b3" d="M62.328027 609.15957 67.17755 602.08096 86.54418 574.5886 95.60024 547.8774 104.263538 533.5064 112.60812 520.85379 120.66548 504.29588 128.4501 486.33219 135.94307 482.11463H143.14353L150.07933 480.86497 156.77143 473.21086 163.26236 472.89845H169.53266L175.66384 467.11885 181.59529 464.3071 187.38053 462.58885 192.98581 446.65583 198.37895 423.6935 203.63399 420.5694H208.74347L213.70458 417.44526 218.49633 416.82044 223.18677 413.69633 227.76485 407.44807 232.23667 390.734 236.60607 388.70335 240.88454 388.39094 245.10776 385.1106H249.23647L253.28493 372.3017H257.24644L261.1288 371.83308H264.93119L268.6475 368.55274 272.28764 367.14689H275.8573L279.36378 364.64759H282.8048L286.19218 363.24174 289.51713 362.4607 292.83503 333.25016 296.12077 316.2237 299.33076 304.1958 302.46034 297.47895 305.51197 291.6993 308.5134 289.82487 311.4606 285.9197 314.33195 277.17216 317.15147 275.14149 319.91835 274.36045 322.6188 266.23774H325.2803L327.90516 265.9253 330.49473 260.6143 333.0495 259.83329 338.04685 255.6157 340.49165 251.86676H342.90443L345.2772 248.27402 347.62907 247.80539H349.93846L352.22099 245.93093 354.48426 243.58783 356.7073 240.61992H361.0746L363.20018 239.52648 365.2928 233.43444H369.40815L371.43266 230.62273H379.31544L381.22953 226.40515H383.12394L384.9963 226.09275 386.85499 224.8431 388.7209 218.75106H390.5556L392.3854 213.59626H394.1985L395.98408 207.1918 397.76533 205.62973H401.27705L403.00508 203.28664H404.71705L406.4127 202.81803H408.09288L409.76338 195.00772H419.48066L421.04335 194.38289 424.19844 178.29366 425.75019 176.5754 427.3007 172.35784 428.83195 171.26439 430.35237 169.70232 431.86927 169.38991 433.37547 167.51544 434.86363 166.422 436.33638 164.39131H450.45124L451.81739 160.79857 453.15727 157.83066 454.49107 156.73722 455.8154 154.23792 457.13505 152.05103H458.44535L459.74317 150.64517H462.3118L463.58198 150.48897H467.34095L468.57456 150.33277H469.8L471.013 149.08312H479.29804L480.44758 139.86695H481.59004L482.72557 139.08592 483.8524 134.39974H484.97236L486.08146 132.83768 487.1825 128.4639H489.3651L490.44593 128.3077H496.8011L497.84553 123.77772H502.99073L503.9948 122.371868H506.97468L507.95869 122.21566 508.93898 119.09154H509.91404L510.88258 118.46671H519.3876L520.3118 118.1543H522.1466L523.0596 116.59224 523.97128 115.498798H526.6795L527.5732 113.1557H536.289L537.1396 111.90605 537.9872 107.688488H542.1675L542.9917 107.376079H547.0583L547.8604 106.907459H551.8197L552.61648 104.56436H554.18099L554.96096 102.8461 555.7393 100.503009H557.2864L558.0562 99.40956H566.31918L567.0501 99.09715 567.7897 98.47233H568.51699L569.2435 98.31612H573.5438L574.24728 97.06647 574.9447 96.28544H585.1113L585.77096 96.129238H587.08309L587.7351 95.19199H589.6776L590.3211 93.00511H596.0229L596.6464 91.75546H598.5044L599.1203 89.88099H599.7341L600.3467 89.72478H606.96316L607.55166 88.475139H611.61929L612.19406 87.6941H612.767L613.3344 87.069278H618.9233L619.47488 86.44445H622.7503L623.2879 86.288249H628.5796L629.11068 85.0386H634.25308L634.7577 83.78895H641.6904L642.1752 83.32033H642.6586L643.1393 82.22689H657.912L658.35916 81.914478H662.33578L662.76956 81.60206H666.2034L666.6358 80.196208H667.0586L667.4801 77.3845H669.5735L669.9903 77.07208H674.92819L675.33407 75.82243H681.7097L682.10098 75.510028H684.43948L684.8243 75.35382H685.5917L685.9744 73.16693H690.13369"/>
</g>
<g clip-path="url(#clip_15)">
<path transform="matrix(1,0,0,-1,0,608.15957)" stroke-width="2" stroke-linecap="butt" stroke-dasharray="7.4,3.2" stroke-linejoin="round" fill="none" stroke="#c44e52" d="M62.327924 609.15957 67.17745 602.08096 77.15543 552.876 86.79036 510.0755 95.93305 496.64179 104.765369 477.74085 113.193019 476.6474 121.23717 473.21089 136.34401 453.6851 143.5486 451.8106 150.47252 418.53874 157.18708 413.54014 163.6425 410.10359 169.902 409.32255 175.9671 402.7619 181.853 399.9502H187.55689L193.08515 390.2654H203.66817L208.7495 389.17198 213.75307 380.58064 218.60894 375.4258 223.31806 366.36585 227.90555 349.02699 232.38436 344.02839 236.7624 337.62394H241.03897L245.22525 331.06327H249.31865L253.315 329.50123 257.2228 327.62675H261.04957L268.4628 316.8485 272.08726 305.75788 275.63844 304.82066 279.11769 302.32136 282.51417 300.13447H289.1251L292.40049 288.8876 295.58155 284.67005 298.7142 271.70494 301.79115 270.9239 304.84245 268.73704H307.84413L310.80149 255.77191 313.70536 255.30329 316.54237 234.99649H322.0887L324.79475 234.84029H332.6825L335.23878 231.24755H337.76014L340.2286 229.37306H345.06864L347.44813 229.06066 349.7967 228.90445 352.11964 225.1555H358.91786L361.11515 224.06206H363.28657L365.43159 218.59485H375.79774L377.7941 217.03279 379.77299 216.56417 381.72566 215.31452H383.6579L385.56153 214.6897 387.4452 213.90866 389.31388 210.94075 391.14375 209.6911 392.9505 207.0356H394.73976L396.5008 191.57118 398.24223 189.3843 399.97404 187.66603H401.6897L403.39045 186.26018 405.07289 184.3857 406.74174 183.29227H410.03477L411.6569 179.54332H416.43934L418.0117 176.5754H421.1167L422.65089 176.10678 424.16899 170.32715 425.67265 168.45267H427.16416L428.64317 166.10959H431.56608L433.00294 163.14167H435.8435L437.25276 162.51685 438.64927 159.70513 440.03657 159.23651 441.41157 159.0803H449.453L450.76249 156.2686H458.41035L459.66136 153.6131 460.89936 152.36344H468.15794L469.34428 149.39553H472.85829L474.014 148.7707H477.44139L478.56846 145.80278 479.69007 144.24073 480.80418 143.6159H483.01237L484.10319 142.67867H485.1876L486.26676 139.55454 487.3431 135.18077H490.53498L491.5894 133.15009H495.74778L496.7773 130.49459 497.80006 129.55735H498.81715L499.8225 128.15149H502.80619L503.79164 125.02737H515.22366L516.14688 124.40254H517.0631L517.97726 123.15289H518.8869L519.79617 122.840488H524.2763L525.16146 122.05945H532.9418L533.78787 121.590839H534.62808L535.4655 121.43462 536.2996 119.87257H538.7796L539.5987 117.52947H541.22616L542.03439 116.27982H546.0234L546.8113 114.87397H547.5958L548.3788 110.5002 549.15719 109.875377 549.937 107.844699H551.4829L553.02236 101.44024H553.78939L554.548 100.815418H566.28189L566.99557 99.09715 567.7062 97.69129H568.41409L569.1155 96.44164H577.9994L578.6678 94.25476H594.5952L595.20236 93.00511H601.16586L601.7524 91.13064H604.659L605.2345 89.41237 605.80917 88.63134 606.3772 87.38169H607.5081L608.0718 87.22549H614.1607L614.70877 86.60066H617.9547L618.489 86.288249H629.3683L629.87197 85.0386H631.37466L631.8755 84.101367H638.74966L639.23257 82.5393H658.4684L658.9037 82.383098H662.34988L662.7803 79.57138H668.6875L669.1013 79.41518H669.5142L669.92587 78.47794H671.97146L672.3796 76.91588 673.19668 76.29105H679.2129L679.6064 76.13485H682.33779L682.7256 74.10417H686.55978"/>
</g>
<g clip-path="url(#clip_16)">
<path transform="matrix(1,0,0,-1,0,608.15957)" stroke-width="2" stroke-linecap="round" stroke-linejoin="round" fill="none" stroke="#55a868" d="M63.95607 609.15957 68.76293 602.08096 78.81982 551.78256 88.56717 499.92213 97.874469 449.3113 106.87373 427.91108 115.52408 403.38673 123.742427 385.2668 131.63463 379.33097 139.16547 357.4621 146.38872 350.58906 153.33586 349.4956 160.05376 344.9656 166.5163 328.72019 172.7555 317.00474 178.81424 310.44407H184.6803L190.36472 309.0382 195.87888 299.35343 201.20085 296.6979 206.36762 291.54313 211.37958 287.95039 216.31996 276.3911 225.81061 258.89604 234.76599 246.86817 239.04886 245.14989 243.26018 243.90024 247.37978 239.83889H251.40938L255.34116 238.58924H259.1909L262.93678 231.24755H266.60813L270.17927 228.74825H273.6826L277.1267 227.96721H283.8227L287.09547 226.87377 290.3178 224.9993 293.51887 220.0007 296.65834 210.78455 299.73854 207.97283 302.76155 205.78594H308.6629L311.53746 204.06768H314.3679L317.1587 202.66182 319.92066 201.09976H322.64189L325.31336 197.66323H333.10325L335.63194 190.94635 338.1083 189.22809 340.5425 188.44705H345.31663L347.6715 179.3871 349.99076 178.60608 352.2663 177.51264 354.51887 173.76369H356.74424L358.94145 172.67024H361.11277L363.24794 169.54611H375.56468L377.5369 169.2337H387.09367L388.97239 163.45407H394.48097L396.26899 160.79857 398.03263 159.70513H411.56565L413.1884 158.9241 414.7959 158.7679H421.0895L422.6443 156.73722 424.19059 155.79998 425.7295 155.17516 427.2543 152.20723 428.7664 147.36486H430.2662L431.7512 146.1152 433.22898 145.64658H436.1495L437.58934 145.02176H450.06568L451.4051 140.33557 452.7371 132.99388 454.05436 129.55735H473.95649L475.13215 129.40114 476.31108 121.43462H478.63966L479.7858 117.06085H482.05693L483.18177 115.655H485.41108L486.5154 114.249149H495.1199L496.16279 114.09294H499.25944L500.27726 111.90605H503.29743L504.29533 110.18778H505.28785L506.27363 109.56296H514.91616L515.84628 108.157108H517.6953L518.6148 107.06366H523.1448L524.0387 106.75125H527.57168L528.4441 104.40816H534.4383L535.2916 101.90886 536.14248 98.31612H541.9908L542.81069 97.37888H550.8149L551.60336 90.66202 552.39 89.724788H555.5035L556.272 89.09996H565.9816L566.7094 88.63134 567.43447 88.47513H580.02L580.6974 85.66342H584.038L584.6984 84.72618H593.70578L594.3321 84.56998H596.19839L596.81698 82.6955H605.2665L605.8566 81.445858 606.4417 80.50862H609.91366L610.4822 79.8838H619.34927L619.8867 79.72759H621.48977L622.0195 78.63415H628.77249L629.283 77.3845H638.7259L639.20968 76.91588H640.6533L641.1312 76.44726H656.6871L657.1245 76.29105H664.40719L664.83108 73.47935H673.08596L673.489 73.16693H680.59799L680.9872 71.13625H682.5309L682.9142 70.98005H688.1986"/>
</g>
<g clip-path="url(#clip_17)">
<path transform="matrix(1,0,0,-1,0,608.15957)" stroke-width="2" stroke-linecap="round" stroke-linejoin="round" fill="none" stroke="#dd8452" d="M63.955785 609.15957 68.76265 602.08096 78.73524 518.6669 88.23353 486.01979 97.33472 421.66285 106.10359 406.97947 114.56514 380.73683 122.68448 379.95579 130.44879 374.64479 137.89434 364.96 145.0168 359.9614 151.86594 350.90147 158.46363 342.77876 164.81787 325.90849 176.87319 318.87919 182.6305 317.47334 188.26721 307.47615H193.73679L199.0467 300.13447 204.2388 295.13587H209.28874L214.23757 276.54734 219.03005 265.7691 223.6979 254.52227 228.26836 254.36606 232.71244 252.33538 237.04247 248.11782 241.27562 239.37026 245.39319 237.49579 249.41788 235.93373 253.37702 229.9979H257.25297L261.0211 223.90586 264.7334 223.28104H275.44209L278.87129 221.87517H282.23789L285.53114 221.25035 288.7733 219.37587 292.00627 213.90866 295.18708 213.75246 298.33033 210.78455 301.41755 209.8473 304.44194 206.72318 307.41023 203.13043 310.32746 195.00772 313.1884 194.22669 315.991 192.66463 318.7517 190.47774 321.4637 189.3843 324.13868 185.01053 326.77647 182.66744H344.30873L346.69587 170.32715H349.04533L351.354 168.76509H353.63414L355.87748 163.61029H362.44837L364.57899 160.48616H384.65556L386.54685 157.20583 388.4317 155.48757 390.29658 152.98827H392.1428L393.96885 151.11379H395.777L397.5622 149.55173 399.32484 148.61449 401.0696 148.45829 402.79078 148.14588 404.49623 147.36486H414.41059L416.0097 145.17797H420.72557L422.29835 142.05384H423.8528L425.3919 137.36766H426.91825L428.43379 135.49318H429.93696L431.422 134.39974 432.89985 133.93112 434.36259 133.30629H449.73094L451.07118 127.68287 452.39384 126.277019 453.70045 122.99669H454.99784L456.2968 121.590839H460.13975L461.4001 120.653598H474.72367L475.90019 117.84188 477.068 115.655H478.2285L479.37904 112.68708 480.5156 111.28123H488.2815L489.3644 109.875377H497.80955L498.84043 109.25055 499.86573 105.34539H508.84559L509.81108 103.93954H516.4316L517.3586 102.84609H532.39608L533.2433 100.503009H534.0866L534.9385 95.81682 535.7843 95.50441H537.4643L538.29806 95.03579 539.1273 94.09856H550.36239L551.1484 89.256168 551.9285 88.94375H553.479L554.25338 88.318927H555.02456L555.7907 87.6941H566.9199L567.6405 87.537899H579.47866L580.1544 86.91307 580.82608 84.72618H581.4952L582.1614 83.78895H593.76107L594.38406 83.632747H595.6238L596.2413 81.75827H604.6753L605.2647 80.50862 605.8493 79.8838H607.5921L608.17019 79.72759H609.32089L609.8897 79.10276H618.76168L619.2978 77.85311H627.16018L627.67379 76.60346H636.6829L637.1724 76.13485H641.981L642.4542 75.66623H656.11679L656.55447 75.510028H663.8399L664.2641 72.69831H680.03799L680.4267 70.51143H687.6392"/>
</g>
<g clip-path="url(#clip_18)">
<path transform="matrix(1,0,0,-1,0,608.15957)" stroke-width="2" stroke-linecap="round" stroke-linejoin="round" fill="none" stroke="#4c72b0" d="M63.955617 609.15957 68.76248 602.08096 78.793308 521.3223 88.32203 465.55677 97.51461 434.0031 106.299198 413.85255 114.72021 380.4244 122.81053 359.8052 130.54218 353.08836 137.94953 325.12745 145.02342 323.56538 151.82926 320.44126 158.41693 319.66023 164.75733 311.5375 170.93001 309.97544 176.90306 306.07029 182.7209 303.4148H188.36086L193.81607 303.1024 199.09293 300.6031H209.2143L214.0907 282.95179 218.81032 269.98667 223.4013 257.9588 227.88837 246.86817 232.28667 240.46372 236.59276 237.33959 240.7866 234.99649H244.88722L252.78102 231.55995H256.59773L260.36659 224.8431 264.04948 222.18759H271.20173L274.70259 220.0007H288.07728L291.3206 217.97002 294.48384 213.59626 297.58879 208.12903 300.62577 205.16112 303.60209 203.91147 306.52745 198.75667 309.40904 191.88359 312.2413 191.41498H315.03077L317.77696 189.22809H320.48286L323.13978 182.51123 325.7696 181.8864 328.36433 179.2309 330.92314 177.044H343.21034L345.59129 172.20162 347.93128 171.5768 350.23655 165.95337 352.51713 164.2351H373.89466L375.8978 160.64237H385.59977L387.4967 159.0803 389.35826 158.7679H393.0259L394.83149 158.61168H396.6196L398.3767 153.9255 400.1101 152.83206H405.2147L406.8842 152.67586H410.17854L411.81159 152.20723 413.42915 150.48897H416.62229L418.2008 148.45829H419.76597L421.3263 142.05384 422.87016 137.68007H425.91957L427.43116 134.08733 428.9277 132.83768H430.4122L431.88148 132.21285H448.6563L449.9983 125.18357H451.32426L452.636 123.93392 453.93656 121.903247 455.22474 120.49739H457.77439L459.03303 119.56015H473.5028L474.67417 112.9995H475.83277L476.97877 112.37467 478.1227 108.625728H480.3895L482.615 105.81401H497.4871L498.50257 103.62713H500.5168L501.51789 101.90886 502.50749 100.503009H517.6633L518.5734 99.40956H522.1696L523.0575 97.06647H532.5519L533.4042 94.879589 534.2489 93.31752H535.0897L535.92617 92.84891H540.8668L541.6769 91.91167H546.4638L547.2525 90.1934H548.81979L549.6066 89.09996 550.38986 85.0386H551.16976L551.9434 84.41377H552.71389L553.48629 83.78895H564.7038L565.4298 83.632747H578.71176L579.3854 81.445858 580.0568 80.82103H591.74557L592.37319 80.664829H593.62197L594.2439 78.79035H603.3297L603.9214 76.91588 604.5089 76.759677H610.8513L611.4134 76.13485H615.8521L616.3976 75.041408H617.48367L618.0232 74.72899H625.41537L625.9361 73.47934H636.0078L636.49716 73.01073H637.9573L638.4403 72.85452H638.92208L639.4017 72.3859H655.45358L655.8914 72.22969H656.3283L656.7668 71.91728H662.7982L663.2268 69.105579H679.1319L679.5251 67.07489H679.91549L680.3044 66.918689H686.794"/>
</g>
<g clip-path="url(#clip_19)">
<path transform="matrix(1,0,0,-1,0,608.15957)" stroke-width="2" stroke-linecap="butt" stroke-dasharray="2,3.3" stroke-linejoin="round" fill="none" stroke="#64b5cd" d="M62.32775 609.15957 67.177288 602.08096 77.23205 551.1577 86.74753 538.505 96.006999 507.1076 104.901798 491.79939 113.39985 480.86497 121.50926 467.43125 129.30982 443.5317 136.73949 441.96965 143.8382 430.09797 150.64095 427.44248 157.199 419.94459 163.5449 412.13426 169.65345 408.69773 175.59667 406.51084 181.35108 395.1078 186.95978 389.32817 192.45256 387.4537 197.82549 373.08274 203.0586 368.70896 208.175 358.86799 213.19112 347.1525 218.03479 329.345 222.76766 313.56819 227.37088 310.75648 236.29312 306.3827 240.60948 301.85273 244.83295 300.6031 248.95294 295.13587 252.98076 292.32417H256.92253L260.8082 286.0759H264.61369L268.3298 279.04664 271.9509 274.67286H275.50227L279.00025 268.42463H282.43318L289.14994 265.30049 292.43806 242.02577 295.64857 237.49579 298.80796 237.18338 301.9326 235.93373 304.99684 233.90305 308.00126 227.34239 310.95619 226.87378 316.68159 222.3438 319.46754 218.43865H322.212L324.9076 213.44005H327.56434L330.17118 208.75386 332.73667 207.348 335.2638 203.28665H337.75679L340.22499 201.25597 342.66413 200.31873H345.07145L347.44984 191.25878H349.7927L352.10685 190.94637 354.39204 189.69672 356.63945 188.13465 358.8561 186.26018H361.04646L363.20466 182.66744H367.44676L369.53746 181.41779H371.60469L373.64607 181.10538H379.638L381.60029 179.54332H383.5419L385.45085 178.44988H387.34019L389.23387 172.67024H391.10365L392.95893 167.04682 394.79389 165.17235 396.60478 162.04822H400.17405L401.93199 161.89202H407.10743L408.7957 160.95479H415.3983L417.01289 160.17375H421.77348L423.3385 153.7693H424.88688L426.41746 152.36345H427.93547L429.4387 147.67726 430.93345 144.08452H432.41618L433.8917 143.6159H449.38835L450.72929 142.52246 452.05384 136.58663 453.38539 134.24353 454.70945 132.83768H457.329L458.6217 131.90044H473.4663L474.64915 130.9632H475.8244L476.99507 130.18218 478.1552 127.21426H479.30809L480.45555 123.3091H483.85563L484.97084 120.49739H486.07218L487.16685 118.46671H492.5447L493.602 113.780529H497.77149L498.80397 113.1557 499.82545 110.81261H500.8413L501.853 108.93813H503.8599L504.84925 107.53228H506.81217L507.77995 107.06367H518.10537L519.9186 104.87678H534.62997L535.46426 103.78333 536.29507 101.59645 537.1226 100.03439H538.76669L539.58358 98.47233 540.3994 97.8475H547.5837L548.36428 96.91026H550.6864L551.45498 94.09856 552.222 92.6927 552.9862 90.974437 553.7454 90.03719 554.50668 89.41237H565.56369L566.28427 87.69411H567.0001L567.71548 87.537899H577.44906L578.1195 87.38169H580.1179L580.77938 85.19481H581.43838L582.09457 84.25757H584.0491L584.6962 83.632747H592.2902L592.9127 83.47654H594.1482L594.7635 81.602069H604.3396L604.92678 80.35242 606.084 79.10277 606.6591 78.94656H612.87026L613.4254 78.79035H616.7231L617.2685 77.07208H619.43429L619.96908 76.91588H628.8318L629.3414 75.66623H636.3312L636.8217 75.19762H639.2488L639.72958 74.729H657.13009L657.5658 74.57279H663.5601L663.9838 73.791759 664.4067 71.76108H672.2624L672.6677 70.51143H679.81527L680.2057 68.32455H687.4524"/>
</g>
<g clip-path="url(#clip_20)">
<path transform="matrix(1,0,0,-1,0,608.15957)" stroke-width="2" stroke-linecap="butt" stroke-dasharray="2,3.3" stroke-linejoin="round" fill="none" stroke="#ccb974" d="M62.327756 609.15957 67.177288 602.08096 76.9735 567.09078 86.321338 550.84536 95.391788 525.3837 104.15077 519.7603 112.63164 496.79798 120.70975 496.17317 128.48925 490.23735 135.97747 463.9947 143.27832 445.8748 150.29898 430.41038 157.08615 416.97666H163.63246L169.92137 409.16636 176.00389 397.6071 181.93944 381.04924 187.69306 374.17619 193.21915 351.52629H198.5845L203.81974 342.1539 208.9124 339.0298 213.86026 338.56117 218.66072 333.40638 223.36295 331.68809 227.96743 325.43986 232.48398 321.5347 236.87265 319.81645 241.1644 319.3478 245.33005 303.1024 249.40836 300.44688 253.40526 299.50965 257.3054 289.51246 261.14576 280.7649 264.92353 276.85975 272.28294 273.73564H275.8541L279.36625 272.48597 282.80055 270.7677 286.17366 268.2684 289.4836 266.86256 292.78193 266.39393 296.02369 257.80259 299.1742 248.58643 302.25938 244.52507 305.29383 242.33818 308.2816 237.96442 311.2269 224.06206 314.10493 222.5H322.47898L325.17805 218.90726 327.8302 213.75246H340.5476L342.9827 212.0342H347.7671L350.11964 210.94075 352.43714 210.00351H354.7259L356.97004 200.94356 359.18556 200.78736 361.3742 199.5377 363.5374 196.25737H367.7892L369.86564 195.32013 371.91755 193.91428H377.93983L379.907 192.82083H385.68577L387.56016 191.72739 389.42146 187.35363H393.07365L394.87025 184.3857H398.41178L400.16297 178.13745 401.8964 172.82645H411.96824L413.6016 171.8892 415.21775 169.54611H416.8199L418.39753 165.17235H419.96177L421.51304 164.39131H423.05766L424.5928 156.1124 426.11405 153.9255 427.6305 153.14447 429.13139 152.05103 432.09986 151.1138H435.01853L436.45494 150.02036 437.87968 148.61449 439.29847 143.92832H447.58943L448.9267 140.64798H450.25437L451.57786 137.83628H454.18476L455.4739 137.52387 456.76026 136.11801H461.8177L463.06535 135.64939H467.97328L469.1789 134.86837 470.3759 134.71215H472.74684L473.91517 132.68148H475.07618L476.23524 131.90044 477.38475 129.86975 478.52973 127.526668H479.6677L480.79603 124.71496 481.91404 123.77772H483.02528L484.12959 122.371868H485.22734L486.32008 118.62292H489.55998L490.63169 115.498798H498.9935L500.01045 114.87397H501.02183L502.02699 114.717769H506.9722L507.94175 112.9995 508.9043 110.81261H516.42929L517.3565 109.875377 518.27566 106.28263H519.19027L520.1044 105.97022H530.73489L531.59677 104.87678H535.00906L536.69076 101.752658H539.999L540.8167 101.12783H541.6308L542.44137 100.3468H550.3566L551.1392 95.81682 551.91677 94.09856H554.99459L555.76229 92.22408H558.80148L559.55288 91.28684H563.99819L564.72708 90.66202H565.4531L566.1774 89.88099H568.32009L569.0265 88.787548H570.43136L571.1308 88.63134H579.99429L580.659 86.44445H581.98129L582.6398 84.56998H591.6205L592.245 83.63274H594.11007L594.7258 83.47653H598.9796L599.5819 81.445858H604.33059L604.9205 80.664829H606.087L606.6668 79.41518H607.82119L608.39639 79.25897H611.8106L612.36978 78.63415H618.95419L619.4894 78.47794H629.3773L629.88449 77.22829H636.8454L637.3339 76.29105H638.79196L639.27456 75.82243H662.3566L662.78079 75.66623H664.0509L664.4723 73.63555H665.7307L666.15017 72.85452H673.5442L673.94729 71.60487H679.8898L680.28207 71.44866H681.05728L681.4445 69.417987H687.53347"/>
</g>
<g clip-path="url(#clip_21)">
<path transform="matrix(1,0,0,-1,0,608.15957)" stroke-width="2" stroke-linecap="butt" stroke-dasharray="2,3.3" stroke-linejoin="round" fill="none" stroke="#9d9e9d" d="M62.327749 609.15957 67.17728 602.08096H76.936008L86.15938 597.08236H94.943477L103.42638 571.7769 111.519359 562.717 119.34919 529.60128 126.897899 526.4772 134.16858 504.13969 141.24698 494.92353 148.13137 470.08674 154.79865 460.55818 161.2321 442.59446 167.40258 434.31553 173.36667 432.90968 179.11438 428.6921 184.76917 415.10218 190.2876 413.69633 195.67842 399.16917 200.96485 386.67268 206.08669 384.64198 211.06433 381.04924 215.87972 377.9251 220.5668 375.2696H225.13776L229.6178 375.1134 234.00023 373.39515 238.24314 367.3031 242.39565 366.83448H246.45676L250.42742 350.90147 254.30609 346.52769 258.11784 343.09117 261.84849 339.0298 265.49736 338.24876H269.07545L272.57368 335.90568 276.00923 332.1567 279.3674 322.78434 282.65086 321.37849 285.88945 319.504H289.08134L292.21476 316.06748 295.31663 313.09956 298.3615 308.41337 301.36683 299.1972 304.32044 297.79136 307.22279 292.32414 310.08934 287.48176H315.6921L318.41819 276.54734 321.09455 267.33119 323.7272 265.30049 326.31309 264.51945 328.84913 263.5822 331.34315 256.86537 336.24626 246.24333 338.65049 245.93093 341.01628 240.15129 343.3608 237.652 345.66734 237.49579 347.94337 235.1527 350.195 230.77893H352.41954L354.61134 229.21686H356.77738L358.9266 227.6548 361.0415 226.40515H363.13243L365.20155 224.53069H367.24775L369.26725 222.5 371.26237 219.6883 373.23643 219.37589 375.1971 218.90726H386.58729L388.41374 217.3452 390.22108 217.189 392.01097 216.56417 395.55433 206.25457 397.31413 199.22528H399.0573L404.2248 198.75667 407.58576 193.91428 409.24406 191.57118 410.88587 189.69672 412.5052 184.85433 414.1115 184.54192H417.28276L418.86317 181.7302 420.4318 176.5754 421.98478 171.8892 423.52183 171.4206 425.04319 171.10819 426.53736 166.422 428.01606 165.79717 429.48466 163.9227 430.94746 160.64237H436.6853L438.09516 158.14307H439.49436L440.8827 155.79998 442.26014 154.39412H446.33183L447.6724 153.6131H448.99888L450.31513 150.80138 451.62406 150.33277H452.92378L454.2125 148.30208 455.48799 148.14588H456.7547L458.01887 146.74002H459.2744L460.52363 145.95899H462.99696L464.22474 144.86554H465.4444L466.65483 142.21004H470.2391L471.4176 140.33557 472.59767 136.58663H478.36857L479.49345 131.58803 480.61164 130.80699 481.7201 130.18218 482.82518 124.71496H485.0157L486.10353 123.3091H490.39179L491.44679 118.62292H498.67103L499.67835 117.99809H500.68019L501.67463 115.8112H507.53138L508.49168 114.09294H514.1542L516.0124 113.46812H520.5877L521.48916 112.37467H523.2788L524.1703 111.28123H532.009L532.86196 110.6564H533.711L534.5565 109.094348H535.3982L537.0744 106.59504H539.5603L540.3844 104.72057H546.8476L547.64218 104.40816H550.7895L551.5729 102.06506 552.3556 100.3468H553.9112L554.68588 98.00371H556.22549L556.9904 97.69129H564.4728L565.2054 97.53509H565.93508L566.65847 96.75406H569.52407L570.23318 96.28544H575.1219L575.8142 94.56717H577.1911L577.87838 94.09855H578.5604L579.92007 89.09995H593.6338L594.26266 87.22549 594.89126 87.069278H604.6706L605.26419 85.819629H608.20376L608.78707 85.0386H615.0864L615.65127 84.41377H623.38217L623.9195 84.25757H627.63986L628.16629 83.00792H640.86306L641.353 82.5393H648.0824L648.55508 82.383098H655.5057L655.9613 81.914478H658.68179L659.131 81.75827H662.68698L663.1271 81.445858H665.3143L665.74996 79.25897H667.4823L667.91189 77.85312H672.99166L673.40957 76.60347H682.37448L682.77377 74.41658H684.3623L684.7568 74.260379H688.6554"/>
</g>
<g clip-path="url(#clip_22)">
<path transform="matrix(1,0,0,-1,0,608.15957)" stroke-width="2" stroke-linecap="butt" stroke-dasharray="2,3.3" stroke-linejoin="round" fill="none" stroke="#da8bc3" d="M62.327749 609.15957 67.17728 602.08096 77.243549 559.9053 86.86525 518.5106 96.11249 493.20527 104.88832 479.4591 113.3207 465.24436 121.48191 450.71717 129.35923 431.81623 136.87218 421.1942 144.12757 420.8818 151.15305 411.19703 157.89926 402.4495 164.39601 378.70616 170.6935 371.67689H176.78308L182.70937 370.1148 188.45456 366.52207 194.06154 358.24314 199.47728 349.4956 204.70948 347.1525 209.81653 340.27943 214.79579 336.8429 219.6067 331.5319 224.32865 327.1581 228.93175 324.1902 233.42906 319.66023 237.82376 314.81785 242.10857 306.5389H250.39067L254.41355 300.75929 258.3418 297.79136 262.19755 291.6993 265.95518 283.10798 269.62324 277.79698 273.22288 276.70353H276.7536L280.2194 273.267 283.6118 272.64219 286.95167 268.89323H290.23216L293.4993 260.4581 296.71574 249.21126 299.88676 246.71196 302.99089 238.74544 306.04985 225.93654H309.0589L312.0144 218.90726 314.91593 218.12622 317.74623 216.25176H325.98548L328.6421 215.47072 331.26527 215.15831H333.85166L336.416 214.37728H338.94517L341.432 213.59626H343.88578L346.29435 212.65901 348.6765 206.41077H351.01649L353.323 202.1932 355.587 200.78734 357.831 198.13184H370.75028L372.8148 195.32013H380.8492L382.79835 192.0398 384.7243 191.72739H388.5169L390.39909 189.22809 392.2472 187.66603 394.064 182.97985 395.86399 182.1988 397.6547 179.2309 399.43614 179.07469H401.2005L402.94508 178.60608H404.6733L406.37858 177.51264H408.06825L409.7346 175.95056H416.25346L417.8497 175.32575 419.42146 172.04541H422.52537L424.07118 169.2337 425.5979 167.35924H427.11213L428.6148 163.61029H430.10539L431.58555 161.2672 433.05949 160.95478 434.51988 159.0803 435.9615 156.1124H451.1175L452.44914 151.58242 453.7538 146.74002H455.04939L456.3366 142.67867H458.88444L460.14457 141.89763 461.39356 141.74143H462.63417L463.86344 140.80419H471.07197L472.2462 137.68007H475.7246L476.88343 133.6187 478.02336 131.58803 479.1549 128.3077H499.3525L500.3561 126.12081H502.34706L503.337 124.71495H516.66567L517.59066 123.3091H523.92599L524.81716 122.21565H534.3459L535.19009 121.903247 536.02969 121.122219 536.8649 120.653598 537.7014 120.34118 538.53457 118.77912 539.3645 118.46671H550.60836L551.39468 112.68708 552.1787 111.90605H566.4794L567.20156 111.43743H567.9209L568.6421 109.71916H579.81307L580.4933 107.53228H592.9016L593.5373 107.376079H594.79568L595.4223 105.5016H605.16976L605.7614 103.470928H606.3482L606.93228 102.8461H617.14419L617.6923 100.97163H618.2389L618.78109 100.815418H619.8607L620.3966 99.72198H627.225L627.74539 98.78474H628.7763L629.29098 97.53509H629.80416L630.3127 96.129238H637.2634L637.7497 94.56717H647.1686L647.6311 93.161319H649.0118L649.4689 92.8489H655.7517L656.19247 92.692699 656.6319 91.28684 657.07028 90.974437H657.50759L657.9458 90.50581H664.39706L664.8226 88.475139H665.24496L665.66818 87.6941H672.71768L673.12979 86.288249H673.947L674.3554 85.0386H680.7697L681.1657 82.851718 688.5248 82.85171"/>
</g>
<g clip-path="url(#clip_23)">
<path transform="matrix(1,0,0,-1,0,608.15957)" stroke-width="2" stroke-linecap="butt" stroke-dasharray="2,3.3" stroke-linejoin="round" fill="none" stroke="#937860" d="M79.82763 609.15957 85.269 585.9917 94.1111 580.68069 102.634517 578.1814 110.75691 563.1856 118.55855 556.46878 126.03667 553.3446 133.2566 550.0643 140.22542 525.85238H146.93053L153.36818 514.9179 159.56352 507.1076H165.55754L171.40026 506.17036 177.07347 489.30009 182.59799 488.36286 187.96952 487.2694H217.13211L221.60155 487.11323H234.40863L238.48165 481.646 242.46456 480.55256H250.1798L253.95207 467.58744H257.62828L261.22 464.93196 264.74897 464.3071 268.23878 463.5261H271.6564L275.0082 453.5289 278.30015 452.90406H281.53437L284.71467 451.96684H287.84089L290.91603 449.62373 293.94953 445.09376H302.7529L305.59169 443.3755H308.3874L311.1502 428.6921 313.8784 424.00593H316.56684L319.21488 415.2584H324.39686L326.95066 408.69773H348.51063L350.7522 398.0757H352.96687L355.1612 394.48298H359.47325L361.58915 388.54713H369.8181L371.81178 381.20545 373.78324 377.6127H375.73387L377.67454 371.20826 379.60267 371.05204H383.40275L385.27494 368.24034H392.58326L394.36735 366.9907H401.35935L403.06858 356.9935H408.08399L409.72059 356.83729H432.7027L434.14036 353.40077H443.90193L445.26414 347.93354H451.92304L453.22624 345.27806H455.80537L457.08085 343.71598H466.97917L468.17677 339.967H476.3542L477.49473 335.28083H481.9876L483.09028 332.46913H506.78709L507.75648 332.1567H512.52786L513.4696 331.8443H521.73568L522.63156 316.6923H538.05569L538.8728 315.44267H541.3101L542.1142 314.50544H564.0414L564.75698 314.0368H579.06808L579.7227 311.5375H595.98348L596.5789 310.9127H598.3511L598.93789 308.25718H601.27029L601.847 303.7272H610.85586L611.4055 302.32136H628.7007L629.2022 299.66584H629.70236L630.2039 295.44828H643.2544L643.7209 293.8862H671.848L672.251 283.5766H675.0438L675.44027 277.48457H683.90597"/>
</g>
<g clip-path="url(#clip_24)">
<path transform="matrix(1,0,0,-1,0,608.15957)" stroke-width="2" stroke-linecap="butt" stroke-dasharray="2,3.3" stroke-linejoin="round" fill="none" stroke="#8172b3" d="M62.327733 609.15957 67.17726 602.08096 77.09349 546.0029 86.722988 501.32798 95.90594 481.48979 104.78315 423.6935 113.35698 394.17057 121.5937 391.20265H129.47832L137.00196 388.85957 144.23125 382.14268 151.17937 371.83308 157.89147 348.24595 164.40265 346.8401 170.67473 342.1539 176.76645 341.52909 182.65129 327.31434 188.34285 326.8457H193.86405L199.2076 314.81785 204.41548 312.00614H209.48036L214.44925 303.57099 219.31764 301.2279 224.07364 293.73 228.73389 288.8876 233.29639 288.419 237.73467 283.5766 242.03821 275.29768H246.24364L250.3464 272.64219 254.36461 271.23634 258.29148 268.2684 262.14814 267.48738 265.9224 264.98808H273.24687L276.80863 262.645H280.30296L283.73817 261.86396 287.10737 260.9267 290.40238 259.52085 293.65794 255.6157 296.86888 249.21126 300.03193 246.08713 303.1114 239.21407 306.1416 236.40235 309.10063 226.09275 312.0053 223.43724 314.85884 223.28104H317.66886L320.4146 222.18759H323.12013L325.801 221.40656H328.44349L331.02717 217.65761H345.81257L348.1792 216.72037 350.5089 215.31452 352.80357 210.62833H355.07L357.30857 208.28525 359.5257 207.66042 361.71287 205.78595 363.86994 201.41217 365.98445 197.97563H372.1863L374.20515 197.66323H376.20213L378.1815 196.56978H389.63896L391.4812 191.10257 393.31196 186.41638 395.12467 183.44847 396.91227 183.13607H400.43629L402.17356 182.35503 403.89289 180.48055H407.2842L408.95878 179.85573H410.61827L412.26658 179.07469H421.85865L423.417 173.29508 424.95759 172.20163 426.48146 170.95198 427.9981 168.60889 429.49894 167.98406H432.46449L433.9312 166.10959H450.67848L452.02265 161.2672 453.35484 157.98686H455.99073L457.29145 156.58101H468.60264L469.81333 155.33136H471.018L472.212 154.39412H475.7483L476.9196 151.27 478.07765 150.64517 479.23124 148.6145H493.53117L494.57615 148.30208H495.61524L496.65156 147.20865H498.7096L499.72633 142.83487 500.73918 139.71076 501.7479 137.83628H502.75114L503.7514 137.52387H509.64179L510.5997 136.11801H533.06289L533.9065 133.77492H534.74636L535.5863 129.40114 537.252 123.777729 538.08016 122.9967H544.57467L545.3734 121.27843H550.87008L551.64169 119.87257 552.4099 117.52948 553.1684 116.74844H555.42538L556.1767 116.12362H570.59579L571.2899 115.967418H579.42288L580.0873 113.1557H592.24526L592.86679 111.90605H593.4847L594.1012 110.031589H604.27877L604.86257 109.875377 605.4413 107.844699H610.56979L611.1271 107.21987H615.52578L616.0725 106.59505H618.7756L619.3087 106.43884H628.1454L628.6551 105.03299H636.136L636.6301 102.689899 637.1225 101.90886 637.61196 100.81542 638.10018 100.3468H638.58706L639.0726 100.034389H645.73947L646.2084 97.8475H649.4504L649.90786 97.22268H655.31216L655.75607 94.410968 656.1982 94.25476H663.5569L663.9848 91.443058H671.91256L672.32156 89.724788H679.9063L680.29837 87.537899H686.08676L686.4675 85.1948H687.6053"/>
</g>
<g clip-path="url(#clip_25)">
<path transform="matrix(1,0,0,-1,0,608.15957)" stroke-width="2" stroke-linecap="butt" stroke-dasharray="2,3.3" stroke-linejoin="round" fill="none" stroke="#c44e52" d="M62.32801 609.15957 67.177539 602.08096 77.08218 564.59146 86.624378 506.32658 95.9008 490.08113 104.91156 464.77574 113.40896 448.06169 121.51474 440.25138 129.21979 423.53733 136.61235 401.04365 143.6833 388.2347 150.52658 366.52207 157.12708 365.1162 163.51146 355.58766 169.73694 348.08976 175.77178 342.77873 181.64583 340.27943 187.3187 323.87779 192.8521 322.47193 198.24324 313.25578 203.48169 312.47474H208.57547L213.54979 300.60307 218.40966 299.97825 223.14267 288.5752 227.73363 287.95039 232.19029 278.578 236.53473 274.20423 240.76116 263.5822 244.8923 260.1457 248.94832 259.05226 252.93325 252.33538 256.85163 249.67987 260.6881 245.77472H268.1297L271.7374 239.21407 275.26536 237.96442 278.72785 236.08994 282.13075 232.96582H288.7538L292.0177 228.43584 298.3652 224.06206 301.45478 220.78174 304.47694 216.09555 307.4536 215.62693H310.38304L313.25587 213.44005 316.06239 202.50562 318.82286 200.31873H321.5426L324.23246 200.16252 326.88313 198.75667H329.49626L332.08445 197.81943H339.63807L342.07264 197.0384 344.469 195.63254 346.85124 190.00913 349.198 186.10398H351.51527L353.80326 185.47914 356.06694 182.66744 358.28746 182.35503 360.48765 179.85573H371.11146L373.1674 177.35643 375.19734 175.16954H379.1914L381.15089 172.35784H386.9074L388.79069 159.23651 390.6349 158.14307 392.45964 157.98686 394.27009 156.73722H396.06294L397.84065 156.1124H399.60139L401.35 154.55033H409.85813L411.51615 152.36345H413.15937L414.78395 151.27H421.14707L422.7179 147.67726 424.27104 146.27141H425.81117L427.3356 145.959 428.85713 144.86556 430.3647 144.08452H446.18217L447.55778 142.52246H448.92317L450.2786 141.58522H452.97087L454.29896 141.11661 455.6167 140.9604 456.9212 138.14868H459.49464L460.76927 136.11801 462.03968 135.49318 463.30378 133.30629 464.5556 131.90044H475.45545L476.63645 127.21426 477.7987 127.05805H478.95368L480.0974 122.371868H481.2383L482.36985 118.62292 483.4928 117.99809H496.46089L497.49528 116.59224 498.52674 115.498798 499.54417 115.34259H501.56236L502.56446 114.249149H516.9595L517.8933 112.84329 518.812 110.65641H520.6358L521.5402 108.625728 523.33969 105.03299H534.63278L536.32077 101.12783H537.98556L538.81796 100.503009 539.6485 98.15992H550.1187L550.89828 97.53509 551.68588 94.56718 552.45706 93.78614 553.2306 89.88099H565.9085L566.63937 85.50722H579.84677L580.5266 84.101367H583.1862L583.84426 83.47654H592.81796L593.45187 83.320339H598.38009L598.9879 82.5393H605.554L606.13577 82.383098H616.8627L617.4125 81.28965 618.5101 77.85312H619.6021L620.1444 76.915889H629.1364L629.65029 76.29105H639.15957L639.6455 76.13485H646.7856L647.26217 75.35382 647.7305 73.32314H656.4192L656.86599 71.292469 657.31167 70.98005H664.72738L665.1622 70.823848H673.4976L673.9057 70.19902H681.10079L681.5022 67.54352H681.8948L682.28817 66.76248H683.8533L684.23989 66.137668H688.8173"/>
</g>
<g clip-path="url(#clip_26)">
<path transform="matrix(1,0,0,-1,0,608.15957)" stroke-width="2" stroke-linecap="butt" stroke-dasharray="2,3.3" stroke-linejoin="round" fill="none" stroke="#55a868" d="M62.327947 609.15957 67.177478 602.08096 77.166568 509.9193 86.670269 488.51908 95.72356 478.8343 104.57075 423.3811 113.0788 405.7298 121.28825 394.01435 129.14556 391.04643 136.68459 374.33238 143.95282 374.01997 150.96183 361.36729 157.73152 357.93074 164.23836 354.4942 170.48896 342.1539 176.58997 339.3422 182.48404 337.93635 188.16757 331.21949 193.68526 330.43846H199.0427L204.24179 328.09538H209.29839L214.25383 319.0354H219.0713L223.77117 310.44407 228.35753 300.44688 232.8819 293.73 237.28427 292.32417H241.58403L245.7907 290.7621 249.89054 283.73283H257.82658L261.68113 277.17216 265.46873 276.0787 269.16346 274.51664 272.79139 270.14289 276.34745 267.33119 279.8583 256.55296H290.00697L293.28843 251.86676 296.53498 246.86817 299.6983 236.55855 302.80876 235.3089 305.88166 228.12342 308.89833 225.1555H311.86643L314.79673 224.21826 317.64158 218.75106H323.203L325.92536 217.65761H331.25245L333.8398 215.78314 336.39854 215.62693H346.2926L348.68913 213.28383 351.04914 210.00351H355.68046L357.93846 206.72318H360.16917L362.36885 204.38008 364.5286 203.28664 366.66688 200.47493 368.78025 198.13184H374.97889L376.99674 197.81943H384.85444L386.75907 196.10117H388.6442L390.52348 193.60187 392.3728 189.69672 394.20198 185.32294 396.012 185.16674 397.8019 181.10538H403.06974L404.79557 180.32434 406.50498 179.85573H413.18849L414.82673 179.3871 416.45137 177.98125H422.8105L424.36424 174.2323 425.9046 172.20163 427.4298 167.51544H428.94255L430.43806 166.2658H431.9215L433.39363 165.79717 436.31199 159.70513H441.9996L443.3965 159.54892H444.78297L446.15855 159.0803 447.5162 156.1124H451.5303L452.87205 151.89482 454.19676 149.08312 455.50877 147.67726H458.1051L459.3861 146.58382H460.6583L461.91847 141.27281H477.58824L478.74266 138.92972H479.88993L481.033 136.11801H482.169L483.2951 135.49318 484.41407 130.65079H489.90226L490.9743 130.02597 492.03617 128.4639H495.18556L496.21635 126.745639H498.2608L499.272 125.33978 500.27925 122.21566 501.2778 120.6536H503.25883L504.23948 118.46671H516.5352L517.4495 115.34259H526.35446L527.22457 114.249149 528.0903 111.90605H534.8733L535.70639 109.875377 536.5349 105.5016H537.35977L538.18026 105.18919H538.99716L539.8132 102.06507 540.6306 101.752658H546.2533L547.04208 100.81542H548.60958L549.3894 100.65921H550.9392L551.71499 96.597858H552.4851L554.02328 94.56717H567.3051L568.01779 94.410968H579.7289L580.39767 92.22408H584.9992L585.6475 91.59926H588.21829L588.85488 90.66202H593.2523L593.8725 88.787548H598.7603L599.36398 87.537899H604.7099L605.29519 85.1948 605.87667 85.0386H606.4563L607.0302 84.41377H612.67306L613.2287 84.25757H615.9822L616.5324 83.632747H624.5721L625.0932 81.75827H628.7016L629.21389 80.82103H637.2237L637.7143 80.196208H638.6916L639.17837 79.72759H640.63088L641.11099 78.63415H656.7351L657.17446 78.47794H664.06497L664.4925 75.66623H672.39047L672.7994 74.41658H680.37557L680.768 72.3859 681.1578 72.2297H686.90737L687.28347 70.823848H688.0333"/>
</g>
<g clip-path="url(#clip_27)">
<path transform="matrix(1,0,0,-1,0,608.15957)" stroke-width="2" stroke-linecap="butt" stroke-dasharray="2,3.3" stroke-linejoin="round" fill="none" stroke="#dd8452" d="M62.32794 609.15957 67.177478 602.08096 77.20798 555.5315 86.93012 471.024 96.17705 446.1872 105.02771 416.03944 113.484218 413.3839 121.58373 408.2291 129.33048 401.66847 136.86907 385.89164 144.11556 369.02137 151.09577 367.92793 157.83054 364.4914 164.30347 341.37287 170.56735 331.8443H176.62552L182.48703 328.25157H193.67928L199.01995 327.78294 204.24799 318.723H209.33194L214.29857 312.16233 219.19139 303.57099 223.93105 296.0731 233.09659 291.6993H237.52193L241.82634 288.419H246.03261L250.14214 286.85694 254.18486 274.67286 258.11589 269.83049H261.96488L265.74598 265.4567 269.44987 254.52227H290.2354L293.52275 247.33678 296.757 246.55576 299.93376 236.24614 303.02815 224.37448 306.10673 217.3452 309.11128 216.25176H314.97746L317.8328 215.47072H323.41426L326.13706 215.31452H334.0724L336.65269 212.81522 339.16996 207.348H346.52204L348.91609 207.0356H353.60047L355.90318 206.56697 358.17167 201.88079H360.4126L362.6117 200.00632 364.77095 198.91287H366.9052L369.00956 197.66323 371.09355 194.85152 373.15907 192.97704H383.15336L385.08564 191.10257H388.8905L390.7696 188.29087 392.62327 188.13465 394.47135 180.16814H398.11289L399.90727 179.38712H401.68437L403.43888 175.48195 405.17646 175.01334H410.29313L411.96257 174.0761 413.61784 172.67024H421.6785L423.24809 170.95198 424.80366 165.79717 426.3487 159.23651 427.88084 157.20584H429.40034L430.9091 155.33136H435.36277L436.82829 154.86275 438.2819 153.7693 439.717 150.80138H441.14106L442.55097 150.17656H452.1298L453.48109 143.14728 454.8125 142.05384 456.1311 140.64798 457.4397 140.49178 458.72966 136.58663 460.003 134.39974H461.2676L462.52305 134.08733H476.95735L479.27424 130.02597 480.41255 128.77632 481.54649 126.43322H483.79365L484.90959 123.93392H486.0188L487.1136 123.3091H498.74595L499.76225 115.030178H509.62004L510.57878 111.74985H519.90518L520.8118 110.6564H527.0366L527.91207 109.562969H528.7833L529.6502 107.21987H535.60696L536.44699 100.81542 537.27828 97.6913H538.1058L538.9307 97.53509 539.7495 97.22268H540.56466L541.38119 96.91026H545.4103L546.2044 95.660617H551.6693L552.4438 89.724788 553.2174 88.943759 553.9877 88.63134H555.5187L556.2777 88.006519H566.58877L567.30807 87.85031H575.0169L575.7016 87.38169H580.4246L581.0922 85.1948H583.7305L584.38449 84.56998H593.3044L593.9279 82.6955H594.5475L595.1668 82.5393H605.3895L605.97506 82.383098 606.5555 80.50862H608.28598L608.8553 79.8838H609.9888L610.55368 79.72759H616.6558L617.20516 79.10277 617.7485 78.946559H620.44137L620.9725 77.07208H627.74386L628.25576 75.82243H639.1744L640.1347 74.8852H657.4785L657.91287 74.729H664.3083L664.73226 71.91728H672.5638L672.9696 70.66763H680.4849L680.8746 68.636959 681.2612 68.48075H688.08676"/>
</g>
<g clip-path="url(#clip_28)">
<path transform="matrix(1,0,0,-1,0,608.15957)" stroke-width="2" stroke-linecap="butt" stroke-dasharray="2,3.3" stroke-linejoin="round" fill="none" stroke="#4c72b0" d="M62.327764 609.15957 67.17729 602.08096 77.033168 569.12149 86.46395 536.47439 95.51094 507.73243 104.13947 490.23735 112.48859 464.93196 128.46367 439.62654 135.9547 416.35185 143.22713 391.98368 150.22863 384.95439 157.00745 379.17478 163.50542 370.42723 169.69849 361.05485H181.49378L187.13382 355.43144 192.61814 346.52769 197.94329 340.27943 203.16646 339.186H208.24582L213.24474 327.47053 218.12087 306.2265 222.86238 295.60447 227.46428 285.9197H244.80318L248.92235 281.23353H252.95156L256.90605 275.14149 260.738 274.04804 264.48246 268.42463H268.1524L271.73835 267.48738 275.2465 266.86256 278.67179 262.80119H288.58189L291.7952 259.36466 294.97303 253.11641H298.09706L301.11909 241.86957 304.10597 229.68549 307.03877 227.811H309.92567L312.78526 222.03139 315.60206 221.25035H321.1098L323.80915 220.1569 326.46907 212.0342H331.67649L334.22169 211.56557H344.0652L346.46968 203.75527 348.8212 200.78736 351.1524 199.22528 353.4401 197.0384 355.70545 195.32013H360.1413L362.32408 194.85152H366.61369L368.72325 194.53911H376.92829L378.9148 192.82083H382.82478L384.73658 191.72739H386.62879L388.5026 187.66603 390.34217 185.16674H392.16358L393.96693 184.3857 395.74366 180.01194 397.5087 177.82505 399.25724 177.044H404.40553L406.09278 175.01334H412.69169L414.31239 171.733H419.09074L420.65528 170.01474 422.21159 157.98686 423.75148 156.1124 425.28169 153.14447H426.79927L428.30995 152.51966H429.80833L431.29936 152.05103H432.77839L434.23524 149.55173H444.12306L445.48548 146.58382H449.5135L450.8392 139.86696 452.15388 139.71074 453.44807 136.43042 454.731 135.49318H456.0051L457.2781 134.24353 458.54435 133.77492H459.8019L461.04054 133.6187H462.2709L463.4922 130.80699H474.13438L475.2906 126.745639 477.5618 125.49599H480.91255L482.01869 123.15289H489.5812L490.6364 121.74704H494.7979L495.82594 120.34119 496.8497 114.561557H500.87904L501.86668 113.1557H504.7983L505.76676 110.03158H509.59043L510.5357 106.907459H515.19088L516.1117 105.97022 517.03158 102.37748H523.34548L524.23239 101.12783H532.8747L533.7229 100.3468 534.56588 99.87818 535.40548 98.31612H537.9014L538.72787 97.37888H549.1469L549.93838 91.75546 550.7226 90.81822H565.7471L566.4692 90.66202H578.3313L579.00808 88.475139H579.6808L580.34939 88.16272H593.23818L593.8614 88.006519H595.10159L595.71926 86.13204H603.56607L604.1578 84.72619H604.7461L605.33169 84.101367 605.91506 83.94515H606.49667L607.07247 83.320339H616.5973L617.13967 83.16412H626.1259L626.6424 81.914478H635.6999L636.1915 81.44586H655.25326L655.69699 80.664829H656.58126L657.0211 80.50862H663.07168L663.49929 79.72759 663.92599 77.696918H671.44216L671.85299 76.447269H679.4704L679.8647 74.41658 680.25656 74.260379H687.1707"/>
</g>
<path transform="matrix(1,0,0,-1,0,608.15957)" stroke-width="1.25" stroke-linecap="square" stroke-miterlimit="10" stroke-linejoin="miter" fill="none" stroke="#d5d6d5" d="M63.45878 49.42358V607.0795"/>
<path transform="matrix(1,0,0,-1,0,608.15957)" stroke-width="1.25" stroke-linecap="square" stroke-miterlimit="10" stroke-linejoin="miter" fill="none" stroke="#d5d6d5" d="M931.0795 49.42358V607.0795"/>
<path transform="matrix(1,0,0,-1,0,608.15957)" stroke-width="1.25" stroke-linecap="square" stroke-miterlimit="10" stroke-linejoin="miter" fill="none" stroke="#d5d6d5" d="M63.45878 49.42358H931.0795"/>
<path transform="matrix(1,0,0,-1,0,608.15957)" stroke-width="1.25" stroke-linecap="square" stroke-miterlimit="10" stroke-linejoin="miter" fill="none" stroke="#d5d6d5" d="M63.45878 607.0795H931.0795"/>
<g>
<path transform="matrix(1,0,0,-1,0,608.15957)" d="M711.36386 62.6543H917.9895C920.48287 62.6543 921.7295 63.90097 921.7295 66.3943V593.9895C921.7295 596.48287 920.48287 597.7295 917.9895 597.7295H711.36386C708.8705 597.7295 707.62387 596.48287 707.62387 593.9895V66.3943C707.62387 63.90097 708.8705 62.6543 711.36386 62.6543Z" fill="#ffffff" fill-opacity=".8"/>
<path transform="matrix(1,0,0,-1,0,608.15957)" stroke-width="1" stroke-linecap="butt" stroke-miterlimit="10" stroke-linejoin="miter" fill="none" stroke="#d5d6d5" stroke-opacity=".8" d="M711.36386 62.6543H917.9895C920.48287 62.6543 921.7295 63.90097 921.7295 66.3943V593.9895C921.7295 596.48287 920.48287 597.7295 917.9895 597.7295H711.36386C708.8705 597.7295 707.62387 596.48287 707.62387 593.9895V66.3943C707.62387 63.90097 708.8705 62.6543 711.36386 62.6543Z"/>
</g>
<path transform="matrix(1,0,0,-1,0,608.15957)" stroke-width="2" stroke-linecap="butt" stroke-dasharray="7.4,3.2" stroke-linejoin="round" fill="none" stroke="#64b5cd" d="M715.1038 583.7045H733.80386 752.50387"/>
<text fill="#333333" xml:space="preserve" transform="matrix(1 0 -0 1 0 608.15957)" font-size="18.630135" font-family="NimbusRomNo9L"><tspan y="-577.15957" x="767.4638 776.7789 785.03207 794.3471 802.6003 811.91537 820.1685">bananas</tspan></text>
<path transform="matrix(1,0,0,-1,0,608.15957)" stroke-width="2" stroke-linecap="butt" stroke-dasharray="7.4,3.2" stroke-linejoin="round" fill="none" stroke="#ccb974" d="M715.1038 557.23129H733.80386 752.50387"/>
<text fill="#333333" xml:space="preserve" transform="matrix(1 0 -0 1 0 608.15957)" font-size="18.630135" font-family="NimbusRomNo9L"><tspan y="-550.6863" x="767.4638 776.7789 785.03207 794.3471 802.6003 816.53567 821.69619 826.8567 842.8786 849.0638 857.03768">bayeslinreg</tspan></text>
<path transform="matrix(1,0,0,-1,0,608.15957)" d="M811.00198 550.6863H816.59109V551.0848H811.00198Z" fill="#333333"/>
<path transform="matrix(1,0,0,-1,0,608.15957)" d="M837.38186 550.6863H842.97097V551.0848H837.38186Z" fill="#333333"/>
<path transform="matrix(1,0,0,-1,0,608.15957)" stroke-width="2" stroke-linecap="butt" stroke-dasharray="7.4,3.2" stroke-linejoin="round" fill="none" stroke="#9d9e9d" d="M715.1038 530.758H733.80386 752.50387"/>
<text fill="#333333" xml:space="preserve" transform="matrix(1 0 -0 1 0 608.15957)" font-size="18.630135" font-family="NimbusRomNo9L"><tspan y="-524.213" x="767.4638 776.7789 786.09396 795.409 803.6622 818.13778 823.2983 831.55148 840.8665">bohamiann</tspan></text>
<path transform="matrix(1,0,0,-1,0,608.15957)" stroke-width="2" stroke-linecap="butt" stroke-dasharray="7.4,3.2" stroke-linejoin="round" fill="none" stroke="#da8bc3" d="M715.1038 504.28474H733.80386 752.50387"/>
<text fill="#333333" xml:space="preserve" transform="matrix(1 0 -0 1 0 608.15957)" font-size="18.630135" font-family="NimbusRomNo9L"><tspan y="-497.73976" x="767.4638 776.7789 786.09396 795.409 803.6622">bonas</tspan></text>
<path transform="matrix(1,0,0,-1,0,608.15957)" stroke-width="2" stroke-linecap="butt" stroke-dasharray="7.4,3.2" stroke-linejoin="round" fill="none" stroke="#937860" d="M715.1038 477.81147H733.80386 752.50387"/>
<text fill="#333333" xml:space="preserve" transform="matrix(1 0 -0 1 0 608.15957)" font-size="18.630135" font-family="NimbusRomNo9L"><tspan y="-471.26649" x="767.4638 776.7789 786.09396 795.409">dngo</tspan></text>
<path transform="matrix(1,0,0,-1,0,608.15957)" stroke-width="2" stroke-linecap="butt" stroke-dasharray="7.4,3.2" stroke-linejoin="round" fill="none" stroke="#8172b3" d="M715.1038 451.33824H733.80386 752.50387"/>
<text fill="#333333" xml:space="preserve" transform="matrix(1 0 -0 1 0 608.15957)" font-size="18.630135" font-family="NimbusRomNo9L"><tspan y="-444.7932" x="767.4638 776.7789 785.03207">gcn</tspan></text>
<path transform="matrix(1,0,0,-1,0,608.15957)" stroke-width="2" stroke-linecap="butt" stroke-dasharray="7.4,3.2" stroke-linejoin="round" fill="none" stroke="#c44e52" d="M715.1038 424.86497H733.80386 752.50387"/>
<text fill="#333333" xml:space="preserve" transform="matrix(1 0 -0 1 0 608.15957)" font-size="18.630135" font-family="NimbusRomNo9L"><tspan y="-418.31996" x="767.4638 776.7789">gp</tspan></text>
<path transform="matrix(1,0,0,-1,0,608.15957)" stroke-width="2" stroke-linecap="round" stroke-linejoin="round" fill="none" stroke="#55a868" d="M715.1038 398.3917H733.80386 752.50387"/>
<text fill="#333333" xml:space="preserve" transform="matrix(1 0 -0 1 0 608.15957)" font-size="18.630135" font-family="NimbusRomNo9L"><tspan y="-391.84669" x="767.4638 778.8282 791.23587 806.2331 821.3794 834.8117 847.21939 860.6517">ZCP+GRAF</tspan></text>
<path transform="matrix(1,0,0,-1,0,608.15957)" stroke-width="2" stroke-linecap="round" stroke-linejoin="round" fill="none" stroke="#dd8452" d="M715.1038 371.91844H733.80386 752.50387"/>
<text fill="#333333" xml:space="preserve" transform="matrix(1 0 -0 1 0 608.15957)" font-size="18.630135" font-family="NimbusRomNo9L"><tspan y="-365.37345" x="767.4638 778.8282 791.23587 806.2331 821.3794 834.8117 847.21939 860.6517 875.6489 884.964 894.27908">ZCP+GRAFxgb</tspan></text>
<path transform="matrix(1,0,0,-1,0,608.15957)" stroke-width="2" stroke-linecap="round" stroke-linejoin="round" fill="none" stroke="#4c72b0" d="M715.1038 345.44517H733.80386 752.50387"/>
<text fill="#333333" xml:space="preserve" transform="matrix(1 0 -0 1 0 608.15957)" font-size="18.630135" font-family="NimbusRomNo9L"><tspan y="-338.90019" x="767.4638 778.8282 791.23587 806.2331 821.3794 834.8117 847.21939 860.6517 875.6489 884.964 894.27908 903.5941">ZCP+GRAFxgb+</tspan></text>
<path transform="matrix(1,0,0,-1,0,608.15957)" stroke-width="2" stroke-linecap="butt" stroke-dasharray="2,3.3" stroke-linejoin="round" fill="none" stroke="#64b5cd" d="M715.1038 318.97193H733.80386 752.50387"/>
<text fill="#333333" xml:space="preserve" transform="matrix(1 0 -0 1 0 608.15957)" font-size="18.630135" font-family="NimbusRomNo9L"><tspan y="-312.4269" x="767.4638 772.6243 781.9394">lgb</tspan></text>
<path transform="matrix(1,0,0,-1,0,608.15957)" stroke-width="2" stroke-linecap="butt" stroke-dasharray="2,3.3" stroke-linejoin="round" fill="none" stroke="#ccb974" d="M715.1038 292.49867H733.80386 752.50387"/>
<text fill="#333333" xml:space="preserve" transform="matrix(1 0 -0 1 0 608.15957)" font-size="18.630135" font-family="NimbusRomNo9L"><tspan y="-285.95365" x="767.4638 781.9394 787.0999">mlp</tspan></text>
<path transform="matrix(1,0,0,-1,0,608.15957)" stroke-width="2" stroke-linecap="butt" stroke-dasharray="2,3.3" stroke-linejoin="round" fill="none" stroke="#9d9e9d" d="M715.1038 266.0254H733.80386 752.50387"/>
<text fill="#333333" xml:space="preserve" transform="matrix(1 0 -0 1 0 608.15957)" font-size="18.630135" font-family="NimbusRomNo9L"><tspan y="-259.48039" x="767.4638 776.7789 785.03207">nao</tspan></text>
<path transform="matrix(1,0,0,-1,0,608.15957)" stroke-width="2" stroke-linecap="butt" stroke-dasharray="2,3.3" stroke-linejoin="round" fill="none" stroke="#da8bc3" d="M715.1038 239.55213H733.80386 752.50387"/>
<text fill="#333333" xml:space="preserve" transform="matrix(1 0 -0 1 0 608.15957)" font-size="18.630135" font-family="NimbusRomNo9L"><tspan y="-233.00713" x="767.4638 776.7789 786.09396">ngb</tspan></text>
<path transform="matrix(1,0,0,-1,0,608.15957)" stroke-width="2" stroke-linecap="butt" stroke-dasharray="2,3.3" stroke-linejoin="round" fill="none" stroke="#937860" d="M715.1038 213.07888H733.80386 752.50387"/>
<text fill="#333333" xml:space="preserve" transform="matrix(1 0 -0 1 0 608.15957)" font-size="18.630135" font-family="NimbusRomNo9L"><tspan y="-206.53388" x="767.4638 773.649 781.90219 791.2172 800.5323 809.84738 831.0298 838.2583 846.5115 854.76467 860.9498 869.203">randomsearch</tspan></text>
<path transform="matrix(1,0,0,-1,0,608.15957)" d="M825.4962 206.53388H831.0853V206.93238H825.4962Z" fill="#333333"/>
<path transform="matrix(1,0,0,-1,0,608.15957)" stroke-width="2" stroke-linecap="butt" stroke-dasharray="2,3.3" stroke-linejoin="round" fill="none" stroke="#8172b3" d="M715.1038 186.6056H733.80386 752.50387"/>
<text fill="#333333" xml:space="preserve" transform="matrix(1 0 -0 1 0 608.15957)" font-size="18.630135" font-family="NimbusRomNo9L"><tspan y="-180.06061" x="767.4638 773.649">rf</tspan></text>
<path transform="matrix(1,0,0,-1,0,608.15957)" stroke-width="2" stroke-linecap="butt" stroke-dasharray="2,3.3" stroke-linejoin="round" fill="none" stroke="#c44e52" d="M715.1038 160.13234H733.80386 752.50387"/>
<text fill="#333333" xml:space="preserve" transform="matrix(1 0 -0 1 0 608.15957)" font-size="18.630135" font-family="NimbusRomNo9L"><tspan y="-153.58734" x="767.4638 774.6923 782.9455 797.4211 802.5816 811.89669 820.14987">seminas</tspan></text>
<path transform="matrix(1,0,0,-1,0,608.15957)" stroke-width="2" stroke-linecap="butt" stroke-dasharray="2,3.3" stroke-linejoin="round" fill="none" stroke="#55a868" d="M715.1038 133.65909H733.80386 752.50387"/>
<text fill="#333333" xml:space="preserve" transform="matrix(1 0 -0 1 0 608.15957)" font-size="18.630135" font-family="NimbusRomNo9L"><tspan y="-127.11408" x="767.4638 774.6923 784.0074 792.26058 798.44577 805.67428 820.6343 829.94937">sparsegp</tspan></text>
<path transform="matrix(1,0,0,-1,0,608.15957)" d="M815.1376 127.11408H820.7267V127.51258H815.1376Z" fill="#333333"/>
<path transform="matrix(1,0,0,-1,0,608.15957)" stroke-width="2" stroke-linecap="butt" stroke-dasharray="2,3.3" stroke-linejoin="round" fill="none" stroke="#dd8452" d="M715.1038 107.18582H733.80386 752.50387"/>
<text fill="#333333" xml:space="preserve" transform="matrix(1 0 -0 1 0 608.15957)" font-size="18.630135" font-family="NimbusRomNo9L"><tspan y="-100.64082" x="767.4638 776.3131 784.5663 797.4583 804.6868 814.0019 822.25509 828.44027 835.66879 850.6288 859.94387">varsparsegp</tspan></text>
<path transform="matrix(1,0,0,-1,0,608.15957)" d="M791.9063 100.64082H797.4954V101.03932H791.9063Z" fill="#333333"/>
<path transform="matrix(1,0,0,-1,0,608.15957)" d="M845.1692 100.64082H850.75827V101.03932H845.1692Z" fill="#333333"/>
<path transform="matrix(1,0,0,-1,0,608.15957)" stroke-width="2" stroke-linecap="butt" stroke-dasharray="2,3.3" stroke-linejoin="round" fill="none" stroke="#4c72b0" d="M715.1038 80.71256H733.80386 752.50387"/>
<text fill="#333333" xml:space="preserve" transform="matrix(1 0 -0 1 0 608.15957)" font-size="18.630135" font-family="NimbusRomNo9L"><tspan y="-74.167568" x="767.4638 776.7789 786.09396">xgb</tspan></text>
</svg>
